<svg width="577" height="347" viewBox="0 0 577 347" fill="none" xmlns="http://www.w3.org/2000/svg">
  <g filter="url(#filter0_d_527_5431)">
    <mask id="mask0_527_5431" style="mask-type:luminance" maskUnits="userSpaceOnUse" x="-6" y="-13" width="579" height="467">
      <path d="M-6 -13H572.5V454H-6V-13Z" fill="white" />
    </mask>
    <g mask="url(#mask0_527_5431)">
      <mask id="mask1_527_5431" style="mask-type:luminance" maskUnits="userSpaceOnUse" x="83" y="1" width="403" height="269">
        <path d="M83.4795 1.70453H485.805V269.927H83.4795V1.70453Z" fill="white" />
      </mask>
      <g mask="url(#mask1_527_5431)">
        <g opacity="0.5">
          <path d="M485.805 186.111C485.805 232.378 448.257 269.927 401.989 269.927H184.069C128.572 269.927 83.4795 224.834 83.4795 169.337C83.4795 117.535 122.714 74.7925 173.171 69.4285C194.116 29.2057 236.195 1.7041 284.642 1.7041C345.657 1.7041 396.454 45.1281 407.863 102.958C451.441 105.972 485.805 141.853 485.805 186.111Z" fill="#97B1DC" />
        </g>
      </g>
      <path d="M19.8105 289.216V326.81H271.241L168.213 403.059H36.7512V439.311H168.89V439.117L168.896 439.425L294.382 346.144C311.271 333.589 331.755 326.81 352.8 326.81H523.972V289.216H19.8105Z" fill="#8193CA" />
      <path d="M523.972 289.216L570.729 256.012V294.983L523.972 327.171V289.216Z" fill="#8193CA" />
    </g>
    <path d="M71.9889 256.012L19.811 289.217H190.941C198.695 289.217 201.619 299.359 195.056 303.488L36.7517 403.059H168.214L296.079 308.428C312.938 295.951 333.357 289.217 354.331 289.217H523.972L570.729 256.012H71.9889Z" fill="url(#paint0_linear_527_5431)" />
    <mask id="mask2_527_5431" style="mask-type:luminance" maskUnits="userSpaceOnUse" x="13" y="-22" width="564" height="492">
      <path d="M13 -22H576.5V469.5H13V-22Z" fill="white" />
    </mask>
    <g mask="url(#mask2_527_5431)">
      <path d="M166.988 276.265C166.032 275.682 166.577 271.33 166.577 271.33C166.577 271.33 171.03 267.767 171.642 270.495C172.255 273.222 175.872 274.447 177.932 274.781C179.354 275.012 179.794 275.8 179.931 276.265H166.988Z" fill="#233862" />
      <path d="M147.275 276.265C146.319 275.682 146.863 271.33 146.863 271.33C146.863 271.33 151.316 267.767 151.929 270.495C152.541 273.222 156.159 274.447 158.219 274.781C159.641 275.012 160.081 275.8 160.217 276.265H147.275Z" fill="#233862" />
      <path d="M157.764 244.614C157.946 245.613 158.061 246.432 158.091 247.019C158.505 255.094 164.889 273.557 166.03 273.988C167.797 274.655 170.579 273.238 172.035 272.774C172.637 272.581 173.044 271.973 172.91 271.356C169.749 256.824 168.588 235.897 168.165 223.508C167.951 217.268 166.88 212.957 166.88 212.957C166.88 212.957 151.311 208.803 151.219 214.057C151.137 218.707 156.376 236.943 157.764 244.614Z" fill="#2C3282" />
      <path d="M157.764 244.614L168.165 223.508C167.951 217.268 166.88 212.957 166.88 212.957C166.88 212.957 151.311 208.803 151.219 214.057C151.137 218.707 156.376 236.943 157.764 244.614Z" fill="#12294B" />
      <path d="M161.228 214.076L152.998 273.727C152.998 273.727 149.383 274.599 146.572 273.901C146.572 273.901 144.163 242.176 144.363 234.506C144.564 226.837 142.634 213.983 144.804 212.566C146.974 211.148 161.228 214.076 161.228 214.076Z" fill="#2C3282" />
      <path d="M172.917 183.734L179.605 200.251L189.839 213.706L188.212 215.671L173.809 203.26L167.174 190.075L172.917 183.734Z" fill="#F9A66D" />
      <path d="M173.169 180.557L177.51 190.675L169.453 196.183L170.885 187.188L173.169 180.557Z" fill="#F26C65" />
      <path d="M161.828 177.015C161.828 177.015 152.985 175.024 149.549 185.077C146.112 195.131 144.085 213.62 144.085 213.62L153.767 214.987L167.175 214.601L171.694 187.219C172.395 184.648 174.578 181.129 172.428 179.649C171.457 178.981 170.17 178.425 168.463 178.136L161.828 177.015Z" fill="#F69186" />
      <path d="M169.052 199.921L157.31 181.601L152.087 193.246L163.78 205.7C164.835 206.823 166.345 207.323 167.801 207.032L186.504 202.307L187.823 199.671L169.052 199.921Z" fill="#FAB17E" />
      <path d="M157.97 180.021L167.54 192.495L157.182 203.032L149.172 190.432L157.97 180.021Z" fill="#F69186" />
      <path d="M152.893 196.714L157.432 202.773L159.261 200.886L157.095 205.542L152.893 196.714Z" fill="#F26C65" />
      <path d="M159.242 185.801L165.474 194.597L161.112 184.81L159.242 185.801Z" fill="#F26C65" />
      <path d="M174.498 161.109C174.498 161.109 177.683 166.014 173.467 166.487L174.498 161.109Z" fill="#2C3282" />
      <path d="M168.716 173.541L167.79 179.174C167.469 181.152 166.174 181.983 164.384 181.606C162.856 181.283 161.304 180.167 161.658 178.436L163.508 169.652L168.716 173.541Z" fill="#FAB17E" />
      <path d="M168.112 177.289C168.112 177.289 163.686 176.803 163.182 171.366C163.023 169.653 168.822 172.965 168.822 172.965L168.112 177.289Z" fill="#ED975E" />
      <path d="M163.465 171.138C165.485 173.894 169.443 174.578 172.12 172.454C172.768 171.94 173.252 171.345 173.386 170.671L174.477 165.027C175.148 161.65 173.231 158.288 170.145 157.43C166.985 156.551 163.229 158.467 162.437 161.897L161.638 166.307C161.372 167.765 162.313 169.565 163.465 171.138Z" fill="#FAB17E" />
      <path d="M160.443 158.358C161.285 155.794 163.473 156.476 163.473 156.476L163.474 156.479C164.639 155.003 167.29 152.115 169.956 152.799C172.525 153.458 175.652 155.612 177.84 158.384C179.001 159.855 179.716 161.52 177.979 162.224C177.956 162.234 177.932 162.243 177.909 162.252C176.116 162.947 174.027 162.08 174.027 162.08C174.027 162.08 169.867 161.486 166.618 160.501C166.526 162.015 165.981 164.337 163.468 163.921L162.119 168.282C162.119 168.282 159.353 161.682 160.443 158.358Z" fill="#2C3282" />
      <path d="M158.845 165.632C158.552 166.902 159.263 168.196 160.433 168.521C161.603 168.846 162.789 168.081 163.082 166.81C163.375 165.54 162.664 164.246 161.494 163.921C160.324 163.595 159.138 164.361 158.845 165.632Z" fill="#FAB17E" />
      <path d="M160.055 176.823L165.474 177.322L169.305 178.307C169.305 178.307 168.851 182.207 165.514 182.077C159.363 181.837 160.055 176.823 160.055 176.823Z" fill="#FAB17E" />
      <path d="M187.824 199.671L196.985 197.388L201.625 199.561C201.893 199.687 201.809 200.086 201.513 200.093C200.561 200.117 198.951 199.863 196.973 198.404C196.973 198.404 197.137 202.415 194.572 202.637C192.008 202.858 186.505 202.307 186.505 202.307L187.824 199.671Z" fill="#FAB17E" />
      <path d="M189.839 213.706L194.244 215.095L197.501 218.483C197.674 218.663 197.531 218.962 197.281 218.939C196.268 218.846 194.352 218.555 192.861 217.656C190.733 216.375 189.791 215.965 190.463 217.134C191.135 218.304 190.727 219.583 190.727 219.583C190.727 219.583 188.927 218.457 188.212 215.67L189.839 213.706Z" fill="#F9A66D" />
      <path d="M318.795 280.745C318.795 289.059 296.27 295.799 268.485 295.799C240.701 295.799 218.177 289.059 218.177 280.745C218.177 272.432 240.701 265.692 268.485 265.692C296.27 265.692 318.795 272.432 318.795 280.745Z" stroke="#97B1DC" stroke-width="1.94444" stroke-miterlimit="10" stroke-dasharray="7.88 7.88" />
    </g>
    <path d="M267.496 28.4235C265.301 31.4964 263.373 34.9776 262.467 38.5586C259.668 49.6478 262.935 55.9128 264.798 61.212C266.171 65.1197 261.979 75.0344 260.048 82.301C259.621 83.906 257.534 84.149 256.75 82.695C253.654 76.9471 247.124 69.0533 234.474 68.4441C220.866 67.7888 216.917 54.7215 215.785 46.3785C215.495 44.2448 212.477 43.9791 211.86 46.0408C211.364 47.7001 211.06 49.6082 211.196 51.6868C211.317 53.5457 209.252 54.6411 207.87 53.4446C205.489 51.3835 202.489 47.656 199.948 40.9736C197.763 35.2232 194.644 33.0597 191.786 32.4712C189.652 32.0324 188.53 34.9516 190.298 36.2603C192.82 38.1276 195.311 41.3262 195.747 46.7564C196.682 58.3213 206.013 74.7097 225.61 77.6011C239.731 79.685 242.705 94.041 243.265 101.894C243.382 103.521 241.541 104.522 240.336 103.467C235.977 99.654 226.422 95.184 208.812 103.629C182.682 116.16 166.358 103.147 164.955 96.398C163.864 91.123 153.649 85.557 145.673 87.75C143.537 88.338 143.648 91.446 145.83 91.831C150.47 92.65 156.208 95.273 157.026 103.147C157.596 108.651 159.797 112.072 162.203 114.192C163.735 115.542 162.59 118.155 160.6 117.841C158.846 117.564 156.948 117.072 155.009 116.249C153.799 115.736 152.872 117.419 153.9 118.255C160.925 123.953 173.976 130.051 195.279 124.834C230.74 116.16 243.337 120.017 244.273 132.549C244.827 140.031 244.884 144.762 244.839 147.361C244.818 148.588 243.674 149.447 242.536 149.094C237.389 147.495 223.022 144.492 197.617 149.658C182.131 152.806 167.628 146.304 158.908 140.97C156.957 139.777 154.873 142.275 156.307 144.089C162.279 151.649 172.853 160.817 188.029 158.612C186.345 158.89 176.731 160.932 168.41 172.445C167.115 174.237 169.048 176.604 170.962 175.558C177.623 171.92 188.113 167.25 198.078 167.25C216.537 167.25 228.39 169.981 235.513 172.599C240.974 174.606 244.477 180.126 244.191 186.108L239.604 281.962C239.604 290.069 297.921 290.069 297.921 281.962L291.615 179.601C291.384 175.862 292.198 172.095 294.146 168.936C297.428 163.614 303.991 159.963 315.655 178.34C326.757 195.827 340.995 197.795 350.709 196.52C353.064 196.211 353.166 192.848 350.836 192.394C340.876 190.45 326.905 184.575 321.097 167.201C320.684 165.962 321.576 164.674 322.843 164.716C331.175 164.992 357.885 165.318 368.835 158.724C379.957 152.032 380.261 171.29 393.63 176.577C395.746 177.415 397.4 174.622 395.713 173.058C391.301 168.965 385.978 162.336 384.827 153.494C384.731 152.758 385.004 152.02 385.571 151.561C386.974 150.426 389.96 148.29 393.703 147.201C394.693 146.913 394.75 145.513 393.791 145.136C389.345 143.382 379.86 141.642 366.505 149.896C351.526 159.159 325.887 149.551 315.755 145.095C314.207 144.414 314.298 142.192 315.896 141.641C329.187 137.064 368.036 121.696 373.109 96.955C373.562 94.748 370.732 93.493 369.474 95.336C366.461 99.753 362.026 105.183 357.109 107.678C356.127 108.176 354.939 107.77 354.439 106.763C352.507 102.874 348.076 93.015 348.645 85.427C348.799 83.385 346.37 82.305 345.1 83.878C341.489 88.348 338.327 96.931 343.53 112.532C343.855 113.506 343.439 114.581 342.551 115.05C338.085 117.411 324.846 123.875 313.784 123.875C305.621 123.875 299.403 127.159 295.755 129.764C294.403 130.729 292.6 129.477 292.979 127.824C295.21 118.107 301.865 100.913 321.72 87.24C345.33 70.9764 357.202 62.8032 360.473 52.7187C361.168 50.5759 358.469 49.019 357.021 50.714C354.406 53.7719 350.759 57.3154 346.484 59.4983C344.833 60.3422 343.04 58.6039 343.731 56.8403C345.129 53.2703 346.81 47.9088 347.064 42.2725C347.172 39.8918 343.779 39.3591 343.09 41.6406C340.764 49.3406 335.128 59.8101 321.72 69.8862C298.773 87.126 287.762 99.741 284.691 113.245C284.311 114.917 282.142 115.24 281.361 113.723C277.492 106.206 271.574 90.087 281.129 74.2262C288.63 61.7681 293.826 52.1723 296.004 44.4334C296.7 41.9614 293.313 40.6106 292.24 42.9342C289.75 48.3294 285.414 54.8122 277.863 61.212C277.863 61.212 269.928 49.6477 268.532 41.9322C267.996 38.9805 269.238 34.6872 270.975 30.5106C271.636 28.9232 270.376 27.5647 269.069 27.5647C268.503 27.5647 267.927 27.8207 267.496 28.4235Z" fill="url(#paint1_linear_527_5431)" />
    <mask id="mask3_527_5431" style="mask-type:luminance" maskUnits="userSpaceOnUse" x="-12" y="-18" width="537" height="469">
      <path d="M-12 -17.5H525V450.5H-12V254V-17.5Z" fill="white" />
    </mask>
    <g mask="url(#mask3_527_5431)">
      <path d="M336.763 65.0565V139.145" stroke="url(#paint2_linear_527_5431)" stroke-width="1.94444" stroke-miterlimit="10" />
      <mask id="mask4_527_5431" style="mask-type:luminance" maskUnits="userSpaceOnUse" x="322" y="121" width="30" height="31">
        <path d="M322.081 121.752H351.445V151.116H322.081V121.752Z" fill="white" />
      </mask>
      <g mask="url(#mask4_527_5431)">
        <g opacity="0.5">
          <path d="M322.081 136.434C322.081 128.325 328.655 121.752 336.763 121.752C344.872 121.752 351.445 128.325 351.445 136.434C351.445 144.543 344.872 151.116 336.763 151.116C328.655 151.116 322.081 144.543 322.081 136.434Z" fill="white" />
        </g>
      </g>
      <path d="M172.775 155.239V217.972" stroke="url(#paint3_linear_527_5431)" stroke-width="1.94444" stroke-miterlimit="10" />
      <mask id="mask5_527_5431" style="mask-type:luminance" maskUnits="userSpaceOnUse" x="161" y="204" width="23" height="23">
        <path d="M161.796 204.781H183.754V226.739H161.796V204.781Z" fill="white" />
      </mask>
      <g mask="url(#mask5_527_5431)">
        <g opacity="0.5">
          <path d="M161.796 215.76C161.796 209.696 166.711 204.781 172.775 204.781C178.838 204.781 183.754 209.696 183.754 215.76C183.754 221.823 178.838 226.739 172.775 226.739C166.711 226.739 161.796 221.823 161.796 215.76Z" fill="white" />
        </g>
      </g>
      <path d="M192.201 35.6736V113.959" stroke="url(#paint4_linear_527_5431)" stroke-width="1.94444" stroke-miterlimit="10" />
      <mask id="mask6_527_5431" style="mask-type:luminance" maskUnits="userSpaceOnUse" x="183" y="105" width="18" height="18">
        <path d="M183.834 105.592H200.568V122.326H183.834V105.592Z" fill="white" />
      </mask>
      <g mask="url(#mask6_527_5431)">
        <g opacity="0.5">
          <path d="M183.833 113.959C183.833 109.338 187.58 105.592 192.2 105.592C196.822 105.592 200.567 109.338 200.567 113.959C200.567 118.581 196.822 122.326 192.2 122.326C187.58 122.326 183.833 118.581 183.833 113.959Z" fill="white" />
        </g>
      </g>
      <path d="M221.565 76.0116V150.1" stroke="url(#paint5_linear_527_5431)" stroke-width="1.94444" stroke-miterlimit="10" />
      <path d="M151.994 94.082V168.17" stroke="url(#paint6_linear_527_5431)" stroke-width="1.94444" stroke-miterlimit="10" />
      <path d="M206.883 164.782V204.405" stroke="url(#paint7_linear_527_5431)" stroke-width="1.94444" stroke-miterlimit="10" />
      <path d="M290.232 57.0375V131.126" stroke="url(#paint8_linear_527_5431)" stroke-width="1.94444" stroke-miterlimit="10" />
      <path d="M330.438 161.144V217.863" stroke="url(#paint9_linear_527_5431)" stroke-width="1.94444" stroke-miterlimit="10" />
      <path d="M365.317 109.837V183.926" stroke="url(#paint10_linear_527_5431)" stroke-width="1.94444" stroke-miterlimit="10" />
      <mask id="mask7_527_5431" style="mask-type:luminance" maskUnits="userSpaceOnUse" x="356" y="171" width="21" height="22">
        <path d="M356.203 171.276H376.955V192.028H356.203V171.276Z" fill="white" />
      </mask>
      <g mask="url(#mask7_527_5431)">
        <g opacity="0.5">
          <path d="M356.203 181.652C356.203 175.922 360.848 171.276 366.579 171.276C372.31 171.276 376.955 175.922 376.955 181.652C376.955 187.383 372.31 192.029 366.579 192.029C360.848 192.029 356.203 187.383 356.203 181.652Z" fill="white" />
        </g>
      </g>
      <mask id="mask8_527_5431" style="mask-type:luminance" maskUnits="userSpaceOnUse" x="320" y="203" width="21" height="21">
        <path d="M320.241 203.181H340.636V223.576H320.241V203.181Z" fill="white" />
      </mask>
      <g mask="url(#mask8_527_5431)">
        <g opacity="0.5">
          <path d="M320.241 213.379C320.241 207.747 324.807 203.181 330.439 203.181C336.07 203.181 340.636 207.747 340.636 213.379C340.636 219.01 336.07 223.576 330.439 223.576C324.807 223.576 320.241 219.01 320.241 213.379Z" fill="white" />
        </g>
      </g>
      <mask id="mask9_527_5431" style="mask-type:luminance" maskUnits="userSpaceOnUse" x="195" y="190" width="24" height="24">
        <path d="M195.358 190.454H218.407V213.502H195.358V190.454Z" fill="white" />
      </mask>
      <g mask="url(#mask9_527_5431)">
        <g opacity="0.5">
          <path d="M195.358 201.978C195.358 195.613 200.518 190.454 206.882 190.454C213.247 190.454 218.407 195.613 218.407 201.978C218.407 208.343 213.247 213.502 206.882 213.502C200.518 213.502 195.358 208.343 195.358 201.978Z" fill="white" />
        </g>
      </g>
      <mask id="mask10_527_5431" style="mask-type:luminance" maskUnits="userSpaceOnUse" x="139" y="154" width="22" height="21">
        <path d="M139.78 154.601H160.142V174.963H139.78V154.601Z" fill="white" />
      </mask>
      <g mask="url(#mask10_527_5431)">
        <g opacity="0.5">
          <path d="M139.78 164.782C139.78 159.159 144.338 154.601 149.961 154.601C155.584 154.601 160.142 159.159 160.142 164.782C160.142 170.405 155.584 174.963 149.961 174.963C144.338 174.963 139.78 170.405 139.78 164.782Z" fill="white" />
        </g>
      </g>
      <mask id="mask11_527_5431" style="mask-type:luminance" maskUnits="userSpaceOnUse" x="210" y="138" width="23" height="22">
        <path d="M210.833 138.128H232.296V159.591H210.833V138.128Z" fill="white" />
      </mask>
      <g mask="url(#mask11_527_5431)">
        <g opacity="0.5">
          <path d="M210.833 148.859C210.833 142.933 215.638 138.128 221.565 138.128C227.492 138.128 232.296 142.933 232.296 148.859C232.296 154.786 227.492 159.591 221.565 159.591C215.638 159.591 210.833 154.786 210.833 148.859Z" fill="white" />
        </g>
      </g>
      <mask id="mask12_527_5431" style="mask-type:luminance" maskUnits="userSpaceOnUse" x="275" y="125" width="30" height="31">
        <path d="M275.55 125.875H304.914V155.239H275.55V125.875Z" fill="white" />
      </mask>
      <g mask="url(#mask12_527_5431)">
        <g opacity="0.5">
          <path d="M275.55 140.557C275.55 132.448 282.123 125.875 290.232 125.875C298.341 125.875 304.914 132.448 304.914 140.557C304.914 148.666 298.341 155.239 290.232 155.239C282.123 155.239 275.55 148.666 275.55 140.557Z" fill="white" />
        </g>
      </g>
      <path d="M215.095 148.86C215.095 145.286 217.991 142.389 221.565 142.389C225.138 142.389 228.036 145.286 228.036 148.86C228.036 152.433 225.138 155.33 221.565 155.33C217.991 155.33 215.095 152.433 215.095 148.86Z" fill="white" />
      <path d="M281.786 140.557C281.786 135.982 285.494 132.273 290.07 132.273C294.645 132.273 298.354 135.982 298.354 140.557C298.354 145.132 294.645 148.841 290.07 148.841C285.494 148.841 281.786 145.132 281.786 140.557Z" fill="white" />
      <path d="M328.479 136.497C328.479 131.922 332.188 128.213 336.763 128.213C341.338 128.213 345.047 131.922 345.047 136.497C345.047 141.073 341.338 144.781 336.763 144.781C332.188 144.781 328.479 141.073 328.479 136.497Z" fill="white" />
      <path d="M359.726 181.467C359.726 177.971 362.56 175.137 366.055 175.137C369.552 175.137 372.386 177.971 372.386 181.467C372.386 184.963 369.552 187.797 366.055 187.797C362.56 187.797 359.726 184.963 359.726 181.467Z" fill="white" />
      <path d="M324.65 213.009C324.65 209.464 327.524 206.591 331.068 206.591C334.612 206.591 337.486 209.464 337.486 213.009C337.486 216.554 334.612 219.427 331.068 219.427C327.524 219.427 324.65 216.554 324.65 213.009Z" fill="white" />
      <path d="M199.906 201.963C199.906 198.11 203.029 194.986 206.882 194.986C210.736 194.986 213.86 198.11 213.86 201.963C213.86 205.816 210.736 208.939 206.882 208.939C203.029 208.939 199.906 205.816 199.906 201.963Z" fill="white" />
      <path d="M165.961 215.76C165.961 211.906 169.084 208.783 172.938 208.783C176.791 208.783 179.915 211.906 179.915 215.76C179.915 219.613 176.791 222.736 172.938 222.736C169.084 222.736 165.961 219.613 165.961 215.76Z" fill="white" />
      <path d="M143.531 164.64C143.531 161.04 146.449 158.123 150.048 158.123C153.646 158.123 156.564 161.04 156.564 164.64C156.564 168.239 153.646 171.156 150.048 171.156C146.449 171.156 143.531 168.239 143.531 164.64Z" fill="white" />
      <path d="M187.249 113.391C187.249 110.656 189.466 108.439 192.2 108.439C194.935 108.439 197.152 110.656 197.152 113.391C197.152 116.125 194.935 118.342 192.2 118.342C189.466 118.342 187.249 116.125 187.249 113.391Z" fill="white" />
      <path d="M270.806 199.152V203.14C270.806 203.32 270.66 203.466 270.48 203.466H266.492C266.311 203.466 266.165 203.32 266.165 203.14V199.152C266.165 198.971 266.019 198.825 265.838 198.825H263.474C263.183 198.825 263.037 198.474 263.242 198.267L268.254 193.255C268.382 193.128 268.589 193.128 268.717 193.255L273.729 198.267C273.935 198.474 273.789 198.825 273.498 198.825H271.133C270.953 198.825 270.806 198.971 270.806 199.152ZM277.014 195.391C276.225 191.388 272.709 188.383 268.486 188.383C265.133 188.383 262.22 190.286 260.77 193.071C257.278 193.442 254.563 196.401 254.563 199.986C254.563 203.826 257.684 206.947 261.524 206.947H276.607C279.81 206.947 282.409 204.348 282.409 201.146C282.409 198.083 280.03 195.6 277.014 195.391Z" fill="#97B1DC" />
      <mask id="mask13_527_5431" style="mask-type:luminance" maskUnits="userSpaceOnUse" x="360" y="177" width="12" height="10">
        <path d="M360.555 177.717H371.556V186.545H360.555V177.717Z" fill="white" />
      </mask>
      <g mask="url(#mask13_527_5431)">
        <g opacity="0.5">
          <path d="M367.411 185.189C367.411 185.939 366.805 186.545 366.055 186.545C365.307 186.545 364.7 185.939 364.7 185.189C364.7 184.815 364.853 184.478 365.097 184.234H365.1C365.344 183.989 365.681 183.837 366.055 183.837C366.43 183.837 366.77 183.989 367.015 184.234C367.259 184.478 367.411 184.815 367.411 185.189Z" fill="#97B1DC" />
          <path d="M371.309 180.777L371.308 180.778C371.004 181.082 370.525 181.097 370.189 180.83C369.053 179.925 367.615 179.384 366.053 179.384C364.495 179.384 363.058 179.925 361.922 180.83C361.586 181.097 361.107 181.082 360.803 180.778L360.802 180.777C360.457 180.432 360.472 179.856 360.852 179.551C362.279 178.405 364.086 177.717 366.053 177.717C368.021 177.717 369.831 178.405 371.259 179.551C371.639 179.856 371.654 180.432 371.309 180.777Z" fill="#97B1DC" />
          <path d="M369.133 182.953C368.849 183.237 368.407 183.277 368.076 183.051C367.501 182.659 366.804 182.428 366.054 182.428C365.188 182.428 364.486 182.769 364.04 183.063C363.706 183.283 363.266 183.244 362.984 182.961L362.975 182.952C362.614 182.59 362.654 181.979 363.076 181.688C363.922 181.104 364.948 180.762 366.054 180.762C367.159 180.762 368.185 181.104 369.033 181.688C369.455 181.978 369.496 182.59 369.133 182.953Z" fill="#97B1DC" />
        </g>
      </g>
      <mask id="mask14_527_5431" style="mask-type:luminance" maskUnits="userSpaceOnUse" x="189" y="110" width="7" height="7">
        <path d="M189.093 110.197H195.308V116.585H189.093V110.197Z" fill="white" />
      </mask>
      <g mask="url(#mask14_527_5431)">
        <g opacity="0.5">
          <path d="M193.423 112.738C193.497 112.883 193.549 113.047 193.574 113.231C193.58 113.27 193.582 113.314 193.581 113.36C193.577 113.56 193.517 113.801 193.429 113.951C192.752 115.095 191.136 114.783 190.923 113.49C190.92 113.468 190.916 113.447 190.914 113.426C190.888 113.223 190.952 112.912 191.054 112.736C191.107 112.644 191.167 112.561 191.23 112.486C191.873 111.748 192.998 111.913 193.423 112.738ZM194.674 115.457L194.971 114.948L194.977 114.936C195.013 114.873 194.997 114.794 194.94 114.752L194.544 114.46C194.537 114.455 194.531 114.45 194.526 114.444C194.488 114.404 194.476 114.345 194.499 114.295C194.626 113.993 194.693 113.671 194.693 113.343C194.694 113.33 194.696 113.317 194.699 113.304C194.713 113.258 194.752 113.22 194.801 113.208L195.2 113.112C195.253 113.099 195.293 113.057 195.304 113.006C195.308 112.991 195.309 112.974 195.307 112.957L195.23 112.36C195.221 112.287 195.155 112.232 195.081 112.235L194.535 112.259C194.481 112.261 194.431 112.232 194.406 112.184C194.369 112.116 194.33 112.049 194.286 111.983C194.205 111.86 194.114 111.747 194.015 111.644C193.974 111.601 193.963 111.538 193.989 111.484L194.227 110.983L194.238 110.957C194.269 110.893 194.245 110.815 194.183 110.778L193.663 110.474C193.599 110.438 193.518 110.454 193.474 110.513L193.148 110.953C193.112 111.003 193.048 111.023 192.991 111.004C192.749 110.927 192.495 110.887 192.241 110.888C192.176 110.888 192.12 110.844 192.105 110.78L191.99 110.307C191.972 110.235 191.904 110.189 191.832 110.198L191.232 110.276C191.161 110.285 191.11 110.347 191.113 110.417L191.14 111.059C191.143 111.114 191.114 111.164 191.066 111.191C191.007 111.223 190.95 111.258 190.893 111.296C190.785 111.368 190.685 111.445 190.593 111.529C190.552 111.567 190.491 111.577 190.44 111.552L189.838 111.266C189.771 111.235 189.693 111.259 189.656 111.322L189.351 111.845C189.319 111.9 189.329 111.97 189.373 112.014C189.378 112.019 189.383 112.024 189.389 112.028L189.877 112.39C189.923 112.423 189.944 112.48 189.931 112.534C189.93 112.539 189.929 112.544 189.927 112.549C189.922 112.563 189.918 112.576 189.914 112.591C189.861 112.757 189.825 112.93 189.808 113.104C189.803 113.163 189.76 113.212 189.702 113.225L189.202 113.346C189.131 113.363 189.085 113.431 189.094 113.504L189.111 113.637L189.171 114.1C189.18 114.173 189.244 114.226 189.318 114.223L189.855 114.199C189.913 114.197 189.964 114.231 189.987 114.284C190.045 114.422 190.119 114.559 190.205 114.69C190.27 114.787 190.341 114.879 190.416 114.964L190.366 115.069L190.162 115.5C190.136 115.553 190.148 115.617 190.189 115.657C190.197 115.666 190.207 115.673 190.217 115.678L190.741 115.986C190.803 116.021 190.882 116.004 190.924 115.947L191.147 115.646C191.184 115.596 191.253 115.575 191.312 115.599C191.554 115.699 191.81 115.759 192.07 115.778C192.131 115.783 192.182 115.825 192.195 115.883L192.339 116.482C192.356 116.548 192.42 116.592 192.488 116.584L193.094 116.505C193.166 116.496 193.218 116.434 193.215 116.362L193.186 115.695C193.183 115.637 193.216 115.584 193.269 115.561C193.381 115.509 193.491 115.448 193.598 115.376C193.656 115.338 193.711 115.298 193.764 115.256C193.806 115.223 193.863 115.217 193.912 115.239L194.489 115.513C194.556 115.545 194.636 115.521 194.674 115.457Z" fill="#97B1DC" />
        </g>
      </g>
      <mask id="mask15_527_5431" style="mask-type:luminance" maskUnits="userSpaceOnUse" x="168" y="211" width="10" height="10">
        <path d="M168.215 211.314H177.336V220.688H168.215V211.314Z" fill="white" />
      </mask>
      <g mask="url(#mask15_527_5431)">
        <g opacity="0.5">
          <path d="M174.569 215.042C174.678 215.255 174.755 215.497 174.791 215.766C174.799 215.823 174.802 215.888 174.801 215.956C174.795 216.249 174.707 216.603 174.577 216.823C173.585 218.502 171.214 218.044 170.901 216.146C170.896 216.114 170.891 216.083 170.887 216.052C170.849 215.755 170.943 215.298 171.092 215.04C171.171 214.904 171.258 214.782 171.352 214.674C172.294 213.591 173.946 213.831 174.569 215.042ZM176.405 219.032L176.84 218.286L176.851 218.268C176.903 218.176 176.879 218.061 176.795 217.999L176.214 217.57C176.204 217.562 176.196 217.555 176.187 217.546C176.133 217.488 176.115 217.402 176.148 217.327C176.335 216.884 176.432 216.411 176.434 215.931C176.434 215.912 176.437 215.892 176.442 215.874C176.463 215.805 176.52 215.75 176.591 215.732L177.177 215.591C177.254 215.573 177.313 215.51 177.33 215.436C177.335 215.414 177.337 215.389 177.333 215.364L177.221 214.488C177.207 214.38 177.112 214.3 177.002 214.305L176.201 214.34C176.122 214.343 176.049 214.301 176.012 214.23C175.958 214.13 175.9 214.032 175.836 213.935C175.716 213.755 175.583 213.589 175.438 213.438C175.377 213.374 175.362 213.282 175.399 213.203L175.748 212.467L175.766 212.43C175.811 212.336 175.776 212.22 175.684 212.167L174.92 211.721C174.827 211.667 174.708 211.691 174.644 211.778L174.166 212.425C174.113 212.496 174.019 212.526 173.936 212.498C173.58 212.385 173.208 212.327 172.834 212.328C172.739 212.327 172.657 212.262 172.634 212.169L172.466 211.475C172.441 211.369 172.341 211.302 172.234 211.316L171.354 211.428C171.251 211.442 171.175 211.533 171.179 211.637L171.219 212.579C171.223 212.659 171.181 212.733 171.111 212.772C171.024 212.82 170.939 212.871 170.855 212.927C170.698 213.031 170.551 213.146 170.416 213.268C170.355 213.325 170.267 213.339 170.192 213.303L169.308 212.883C169.21 212.837 169.095 212.873 169.041 212.965L168.593 213.731C168.546 213.813 168.561 213.916 168.626 213.981C168.633 213.988 168.64 213.995 168.649 214L169.366 214.531C169.432 214.58 169.464 214.663 169.445 214.744C169.444 214.751 169.442 214.758 169.44 214.765C169.432 214.786 169.425 214.805 169.42 214.827C169.341 215.071 169.289 215.324 169.264 215.58C169.257 215.666 169.193 215.737 169.108 215.757L168.375 215.935C168.271 215.96 168.203 216.06 168.217 216.166L168.241 216.361L168.33 217.041C168.343 217.148 168.436 217.226 168.545 217.222L169.333 217.188C169.418 217.183 169.494 217.233 169.527 217.311C169.613 217.514 169.72 217.715 169.847 217.907C169.942 218.049 170.046 218.184 170.156 218.308L170.083 218.463L169.784 219.097C169.746 219.174 169.763 219.268 169.823 219.326C169.835 219.339 169.849 219.349 169.865 219.358L170.633 219.808C170.724 219.861 170.84 219.835 170.902 219.752L171.229 219.31C171.284 219.236 171.385 219.207 171.471 219.242C171.827 219.388 172.203 219.476 172.583 219.504C172.673 219.511 172.748 219.573 172.767 219.659L172.979 220.536C173.004 220.635 173.096 220.699 173.198 220.686L174.087 220.571C174.192 220.557 174.269 220.466 174.264 220.362L174.222 219.382C174.218 219.297 174.266 219.22 174.343 219.185C174.508 219.11 174.669 219.019 174.826 218.914C174.911 218.859 174.992 218.8 175.07 218.738C175.132 218.69 175.215 218.68 175.286 218.713L176.134 219.115C176.232 219.162 176.348 219.126 176.405 219.032Z" fill="#97B1DC" />
        </g>
      </g>
      <mask id="mask16_527_5431" style="mask-type:luminance" maskUnits="userSpaceOnUse" x="144" y="161" width="12" height="8">
        <path d="M144.54 161.056H155.382V168.223H144.54V161.056Z" fill="white" />
      </mask>
      <g mask="url(#mask16_527_5431)">
        <g opacity="0.5">
          <path d="M146.537 161.215C146.305 160.983 145.924 161.008 145.72 161.264C144.982 162.19 144.541 163.363 144.541 164.64C144.541 165.915 144.982 167.089 145.72 168.015C145.924 168.271 146.305 168.295 146.537 168.064C146.728 167.873 146.755 167.565 146.585 167.355C145.985 166.615 145.625 165.669 145.625 164.64C145.625 163.61 145.985 162.664 146.585 161.923C146.755 161.713 146.728 161.406 146.537 161.215ZM154.298 164.64C154.298 165.669 153.938 166.615 153.338 167.355C153.167 167.565 153.195 167.873 153.386 168.064C153.617 168.295 153.999 168.271 154.202 168.015C154.941 167.089 155.383 165.915 155.383 164.64C155.383 163.363 154.941 162.19 154.202 161.264C153.999 161.008 153.617 160.983 153.386 161.215C153.195 161.406 153.167 161.713 153.338 161.923C153.938 162.664 154.298 163.61 154.298 164.64ZM149.962 163.555C149.365 163.555 148.877 164.043 148.877 164.64C148.877 165.236 149.365 165.724 149.962 165.724C150.558 165.724 151.046 165.236 151.046 164.64C151.046 164.043 150.558 163.555 149.962 163.555ZM151.837 166.515C152.073 166.751 152.477 166.728 152.664 166.451C153.012 165.934 153.214 165.311 153.214 164.64C153.214 163.968 153.012 163.345 152.664 162.829C152.477 162.551 152.073 162.527 151.837 162.764L151.834 162.767C151.649 162.951 151.629 163.236 151.773 163.454C151.999 163.794 152.13 164.202 152.13 164.64C152.13 165.078 151.998 165.487 151.773 165.83C151.631 166.047 151.653 166.331 151.836 166.514L151.837 166.515ZM148.086 166.515C147.849 166.751 147.446 166.728 147.259 166.451C146.911 165.934 146.709 165.311 146.709 164.64C146.709 163.968 146.911 163.345 147.259 162.829C147.446 162.551 147.849 162.527 148.086 162.764L148.089 162.767C148.273 162.951 148.294 163.236 148.15 163.454C147.924 163.794 147.793 164.202 147.793 164.64C147.793 165.078 147.925 165.487 148.15 165.83C148.292 166.047 148.27 166.331 148.087 166.514L148.086 166.515Z" fill="#97B1DC" />
        </g>
      </g>
      <mask id="mask17_527_5431" style="mask-type:luminance" maskUnits="userSpaceOnUse" x="201" y="198" width="12" height="8">
        <path d="M201.932 198.394H212.774V205.562H201.932V198.394Z" fill="white" />
      </mask>
      <g mask="url(#mask17_527_5431)">
        <g opacity="0.5">
          <path d="M203.929 198.553C203.698 198.322 203.316 198.346 203.112 198.602C202.374 199.529 201.933 200.702 201.933 201.978C201.933 203.254 202.374 204.427 203.112 205.354C203.316 205.609 203.698 205.634 203.929 205.403C204.12 205.212 204.147 204.904 203.978 204.694C203.377 203.953 203.017 203.007 203.017 201.978C203.017 200.948 203.377 200.003 203.978 199.262C204.147 199.052 204.12 198.744 203.929 198.553ZM211.69 201.978C211.69 203.007 211.33 203.953 210.73 204.694C210.559 204.904 210.587 205.212 210.779 205.403C211.009 205.634 211.391 205.609 211.595 205.354C212.333 204.427 212.775 203.254 212.775 201.978C212.775 200.702 212.333 199.529 211.595 198.602C211.391 198.346 211.009 198.322 210.779 198.553C210.587 198.744 210.559 199.052 210.73 199.262C211.33 200.003 211.69 200.948 211.69 201.978ZM207.354 200.894C206.757 200.894 206.269 201.382 206.269 201.978C206.269 202.574 206.757 203.062 207.354 203.062C207.95 203.062 208.438 202.574 208.438 201.978C208.438 201.382 207.95 200.894 207.354 200.894ZM209.229 203.853C209.465 204.09 209.869 204.066 210.056 203.789C210.404 203.272 210.606 202.649 210.606 201.978C210.606 201.307 210.404 200.684 210.056 200.167C209.869 199.89 209.465 199.866 209.229 200.102L209.226 200.105C209.042 200.29 209.021 200.575 209.165 200.793C209.391 201.133 209.522 201.54 209.522 201.978C209.522 202.416 209.39 202.826 209.165 203.169C209.023 203.386 209.045 203.669 209.228 203.852L209.229 203.853ZM205.478 203.853C205.241 204.09 204.838 204.066 204.651 203.789C204.303 203.272 204.101 202.649 204.101 201.978C204.101 201.307 204.303 200.684 204.651 200.167C204.838 199.89 205.241 199.866 205.478 200.102L205.481 200.105C205.665 200.29 205.686 200.575 205.542 200.793C205.316 201.133 205.185 201.54 205.185 201.978C205.185 202.416 205.317 202.826 205.542 203.169C205.684 203.386 205.662 203.669 205.479 203.852L205.478 203.853Z" fill="#97B1DC" />
        </g>
      </g>
      <mask id="mask18_527_5431" style="mask-type:luminance" maskUnits="userSpaceOnUse" x="331" y="131" width="12" height="10">
        <path d="M331.262 131.829H342.264V140.657H331.262V131.829Z" fill="white" />
      </mask>
      <g mask="url(#mask18_527_5431)">
        <g opacity="0.5">
          <path d="M338.119 139.302C338.119 140.051 337.512 140.658 336.763 140.658C336.014 140.658 335.408 140.051 335.408 139.302C335.408 138.927 335.56 138.591 335.804 138.346H335.808C336.052 138.101 336.388 137.949 336.763 137.949C337.138 137.949 337.478 138.101 337.722 138.346C337.967 138.591 338.119 138.927 338.119 139.302Z" fill="#97B1DC" />
          <path d="M342.017 134.89H342.016C341.712 135.194 341.233 135.21 340.897 134.942C339.76 134.037 338.323 133.496 336.761 133.496C335.203 133.496 333.766 134.037 332.629 134.942C332.293 135.21 331.815 135.194 331.511 134.89H331.509C331.165 134.545 331.18 133.969 331.56 133.663C332.987 132.517 334.794 131.83 336.761 131.83C338.728 131.83 340.539 132.517 341.966 133.663C342.346 133.969 342.361 134.545 342.017 134.89Z" fill="#97B1DC" />
          <path d="M339.84 137.066C339.557 137.349 339.114 137.39 338.784 137.164C338.208 136.771 337.512 136.541 336.761 136.541C335.896 136.541 335.194 136.881 334.748 137.175C334.414 137.396 333.974 137.356 333.691 137.073L333.683 137.065C333.322 136.702 333.361 136.091 333.783 135.8C334.629 135.217 335.655 134.875 336.761 134.875C337.867 134.875 338.893 135.217 339.74 135.8C340.163 136.09 340.203 136.703 339.84 137.066Z" fill="#97B1DC" />
        </g>
      </g>
      <mask id="mask19_527_5431" style="mask-type:luminance" maskUnits="userSpaceOnUse" x="287" y="135" width="7" height="11">
        <path d="M287.015 135.563H293.124V145.751H287.015V135.563Z" fill="white" />
      </mask>
      <g mask="url(#mask19_527_5431)">
        <g opacity="0.5">
          <path d="M290.942 139.56L290.494 142.953H289.646L289.197 139.547L289.33 139.386L289.597 139.707L289.976 139.355L290.358 139.693L290.72 139.358L290.942 139.56Z" fill="#97B1DC" />
          <path d="M293.124 138.616C293.124 138.918 293.08 139.212 292.997 139.488C292.761 140.277 292.501 141.058 292.297 141.856L292.017 142.952H290.77L291.236 139.452L290.721 138.982L290.355 139.319L289.973 138.982L289.621 139.306L289.331 138.951L288.907 139.463L289.37 142.952H288.123L287.863 141.933L287.154 139.527C287.06 139.225 287.01 138.904 287.016 138.569C287.041 136.883 288.495 135.504 290.178 135.565C291.814 135.62 293.124 136.966 293.124 138.616Z" fill="#97B1DC" />
          <path d="M291.912 143.725L290.829 143.932L291.851 143.997L291.742 144.498H288.397L288.292 144.021C288.425 144.019 288.594 144.016 288.766 144.01C289.132 144.008 289.497 144.002 289.497 144.002C289.497 144.002 289.137 143.938 288.777 143.875C288.594 143.841 288.414 143.811 288.279 143.788C288.264 143.786 288.253 143.786 288.242 143.783L288.121 143.229H292.02L291.912 143.725Z" fill="#97B1DC" />
          <path d="M288.432 144.794H291.709C291.05 146.065 289.104 146.071 288.437 144.804L288.432 144.794Z" fill="#97B1DC" />
        </g>
      </g>
      <mask id="mask20_527_5431" style="mask-type:luminance" maskUnits="userSpaceOnUse" x="218" y="143" width="7" height="12">
        <path d="M218.51 143.837H224.619V154.026H218.51V143.837Z" fill="white" />
      </mask>
      <g mask="url(#mask20_527_5431)">
        <g opacity="0.5">
          <path d="M222.437 147.835L221.989 151.228H221.142L220.692 147.822L220.826 147.661L221.092 147.982L221.471 147.631L221.853 147.968L222.216 147.633L222.437 147.835Z" fill="#97B1DC" />
          <path d="M224.619 146.891C224.619 147.193 224.575 147.487 224.492 147.764C224.256 148.552 223.997 149.333 223.792 150.131L223.512 151.227H222.266L222.731 147.727L222.216 147.257L221.851 147.594L221.468 147.257L221.117 147.581L220.826 147.226L220.402 147.738L220.865 151.227H219.618L219.358 150.208L218.649 147.802C218.555 147.5 218.505 147.179 218.511 146.844C218.536 145.158 219.99 143.779 221.673 143.84C223.31 143.895 224.619 145.241 224.619 146.891Z" fill="#97B1DC" />
          <path d="M223.407 152L222.324 152.208L223.346 152.272L223.238 152.773H219.892L219.787 152.296C219.92 152.294 220.09 152.291 220.261 152.285C220.627 152.283 220.992 152.277 220.992 152.277C220.992 152.277 220.632 152.213 220.272 152.15C220.09 152.116 219.909 152.086 219.774 152.064C219.76 152.061 219.749 152.061 219.738 152.058L219.616 151.504H223.515L223.407 152Z" fill="#97B1DC" />
          <path d="M219.927 153.069H223.204C222.545 154.341 220.6 154.346 219.932 153.079L219.927 153.069Z" fill="#97B1DC" />
        </g>
      </g>
      <mask id="mask21_527_5431" style="mask-type:luminance" maskUnits="userSpaceOnUse" x="326" y="208" width="9" height="10">
        <path d="M326.525 208.153H334.644V217.496H326.525V208.153Z" fill="white" />
      </mask>
      <g mask="url(#mask21_527_5431)">
        <g opacity="0.5">
          <path d="M332.05 213.202L332.985 213.387C332.994 213.845 333.374 214.209 333.832 214.199C334.29 214.189 334.654 213.81 334.644 213.352C334.634 212.894 334.255 212.53 333.797 212.54C333.475 212.546 333.186 212.739 333.056 213.033L332.097 212.843C332.096 212.492 331.96 212.155 331.716 211.903L332.957 210.15C333.48 210.399 334.106 210.177 334.355 209.653C334.603 209.13 334.381 208.504 333.858 208.255C333.334 208.006 332.709 208.229 332.46 208.752C332.27 209.151 332.351 209.627 332.662 209.941L331.434 211.677C330.869 211.338 330.142 211.452 329.707 211.948L328.095 210.695C328.306 210.288 328.147 209.785 327.74 209.574C327.332 209.362 326.83 209.521 326.619 209.928C326.407 210.336 326.566 210.838 326.973 211.05C327.259 211.198 327.606 211.168 327.862 210.972L329.506 212.249C329.233 212.807 329.372 213.479 329.845 213.883L328.846 215.296C328.317 214.974 327.627 215.143 327.307 215.672C326.986 216.201 327.154 216.89 327.683 217.211C328.212 217.533 328.901 217.364 329.222 216.834C329.472 216.424 329.431 215.899 329.121 215.532L330.147 214.08C330.499 214.247 330.904 214.256 331.262 214.105L332.48 215.904C332.122 216.282 332.138 216.88 332.517 217.238C332.896 217.596 333.492 217.579 333.851 217.201C334.209 216.822 334.192 216.225 333.814 215.867C333.535 215.602 333.123 215.534 332.774 215.694L331.573 213.921C331.806 213.739 331.973 213.487 332.05 213.202Z" fill="#97B1DC" />
        </g>
      </g>
      <path d="M109.634 220.903C107.73 225.302 109.306 230.368 113.051 232.158C116.822 233.96 120.944 232.936 122.849 228.537C124.753 224.137 123.339 218.862 119.69 216.754C116.04 214.646 111.538 216.503 109.634 220.903Z" fill="#2C3282" />
      <path d="M114.076 238.022C111.909 238.583 109.172 245.541 107.832 249.998C106.481 254.495 104.189 260.072 102.69 261.804C101.189 263.538 91.332 267.555 91.332 267.555C91.332 267.555 115.687 267.609 115.188 267.554C114.689 267.498 114.076 238.022 114.076 238.022Z" fill="#A4DDF0" />
      <path d="M101.146 265.32C102.479 265.099 107.289 265.815 105.242 264.825C103.193 263.834 103.479 262.569 103.479 262.569C103.479 262.569 106.384 265.375 106.908 262.922C107.36 260.806 107.533 253.337 109.247 245.851C110.663 242.139 112.517 238.426 114.076 238.022C114.076 238.022 114.131 240.658 114.221 244.354C113.623 252.533 112.608 264.548 112.35 267.577C109.122 267.583 103.719 267.577 99.1991 267.57L96.1931 267.404C96.1931 267.404 99.8131 265.54 101.146 265.32Z" fill="#83C8DA" />
      <path d="M122.045 236.48C122.045 236.48 128.939 240.93 130.547 241.877C132.154 242.823 126.044 270.604 124.686 271.794C123.326 272.984 111.363 271.999 110.002 270.499C108.639 268.999 111.047 264.396 109.868 255.178C108.689 245.962 113.463 238.004 114.076 238.022C114.69 238.04 118.692 236.48 118.692 236.48H122.045Z" fill="#A4DDF0" />
      <path d="M124.685 271.794C123.327 272.985 114.766 273.011 111.122 271.701C110.711 271.554 108.844 270.694 108.8 269.886C109.24 269.791 110.985 270.033 111.694 269.845C114.159 269.19 115.516 265.664 115.516 265.664C115.516 265.664 116.873 265.1 119.909 263.614C122.945 262.129 123.625 257.454 123.696 255.473C123.767 253.492 124.766 247.193 130.267 242.283L130.771 242.544C131.164 247.059 125.942 270.693 124.685 271.794Z" fill="#83C8DA" />
      <path d="M78.9625 251.9H95.564L103.125 270.488H84.8386L77.9942 253.662C77.6604 252.842 78.1782 251.9 78.9625 251.9Z" fill="#333332" />
      <path d="M102.136 270.751H112.126C112.745 270.751 113.248 270.171 113.248 269.455C113.248 268.739 112.745 268.159 112.126 268.159H102.852L96.582 252.57C96.321 251.921 95.653 251.639 95.091 251.941C94.529 252.242 94.286 253.013 94.547 253.662L101.118 270.001C101.302 270.459 101.699 270.751 102.136 270.751Z" fill="#181818" />
      <path d="M131.088 242.398C133.102 249.837 135.35 257.884 136.809 263.067C137.587 265.833 135.849 268.683 133.331 268.773C127.401 268.986 118.31 269.243 117.796 268.735C117.047 267.994 117.26 265.146 117.368 264.775C117.475 264.404 128.21 262.203 128.21 262.203C128.21 262.203 126.797 259.021 126.261 252.8C125.725 246.58 130.458 240.072 131.088 242.398Z" fill="#A4DDF0" />
      <path d="M117.814 264.88C113.48 265.815 112.415 266.964 110.052 267.404C107.374 267.903 107.693 268.587 109.681 268.587C111.671 268.587 116.668 268.676 118.384 268.236C120.1 267.796 117.814 264.88 117.814 264.88Z" fill="#FAB17E" />
      <path d="M119.52 225.82L122.195 237.115C122.195 237.115 117.674 245.266 116.431 244.542C115.188 243.818 117.126 237.916 117.126 237.115C117.126 236.313 115.188 228.038 115.188 228.038L119.52 225.82Z" fill="#FAB17E" />
      <path d="M117.033 237.69C117.091 237.423 117.126 237.222 117.126 237.115C117.126 236.313 115.188 228.038 115.188 228.038L119.519 225.82L120.405 229.557C119.632 233.418 118.237 235.99 117.033 237.69Z" fill="#ED975E" />
      <path d="M109.223 226.997C109.436 230.315 110.7 234.431 113.377 234.777C116.054 235.123 118.534 232.2 118.917 228.249C119.299 224.298 117.439 220.815 114.762 220.469C112.085 220.123 108.968 223.032 109.223 226.997Z" fill="#FAB17E" />
      <path d="M118.029 227.476C117.676 228.622 117.982 229.793 118.713 230.093C119.444 230.394 120.323 229.71 120.676 228.565C121.028 227.42 120.722 226.248 119.991 225.947C119.26 225.647 118.381 226.332 118.029 227.476Z" fill="#F0995A" />
      <path d="M109.479 221.519C110.336 229.204 118.419 228.214 118.419 228.214C118.419 228.214 120.086 225.682 120.837 227.01C121.586 228.338 119.796 219.218 115.157 218.931C113.634 218.837 109.479 221.519 109.479 221.519Z" fill="#2C3282" />
      <path d="M98.179 270.559C92.988 269.65 91.224 269.936 88.048 276.766C84.871 283.595 80.6424 295.892 78.2112 297.48C74.5492 299.871 73.3359 305.735 71.8322 305.471C70.3291 305.208 69.3614 305.976 70.9974 307.547C72.6333 309.117 75.2751 310.455 76.1787 310.176C77.0822 309.897 77.7828 305.388 80.1427 303.924C82.502 302.46 81.7936 301.257 81.638 299.962C81.4831 298.666 88.526 292.703 93.835 285.288C97.079 280.756 98.75 277.764 98.997 275.054C99.245 272.343 98.179 270.559 98.179 270.559Z" fill="#FAB17E" />
      <path d="M85.311 295.323C86.5166 291.79 87.7254 285.96 88.862 280.614C90.479 273.011 92.173 271.207 93.246 270.395C94.544 270.02 96.081 270.192 98.179 270.559C98.179 270.559 99.245 272.343 98.997 275.054C98.75 277.765 97.079 280.756 93.835 285.288C91.039 289.192 87.7643 292.693 85.311 295.323Z" fill="#ED975E" />
      <path d="M96.5979 276.57C96.5979 276.57 97.9789 288.608 99.2649 289.831C100.185 290.706 100.836 290.764 101.479 287.174C102.122 283.584 100.479 270.184 100.479 270.184L96.5979 276.57Z" fill="#12294B" />
      <path d="M97.698 283.084L110.48 285.565L103.264 273.612L97.772 272.32L94.479 273.195L97.698 283.084Z" fill="#F0995A" />
      <path d="M124.267 271.041C128.802 280.443 125.704 286.417 120.192 287.027C114.68 287.635 105.98 286.472 100.908 281.604C95.8359 276.735 91.6729 271.587 92.2549 270.819C92.8359 270.051 124.267 271.041 124.267 271.041Z" fill="#ED975E" />
      <path d="M98.55 278.055C97.622 274.837 96.552 272.368 94.479 272.323C92.3 272.276 90.959 273.586 90.866 277.704C90.755 282.608 90.606 298.85 90.802 306.071C90.95 311.538 89.571 313.288 89.688 318.987C89.775 323.279 85.8143 321.111 87.3446 323.337C88.397 324.867 91.528 324.367 93.453 324.084C95.166 323.832 92.565 317.898 94.938 316.311C96.974 314.95 97.013 312.739 95.728 311.066C94.442 309.392 95.585 304.441 96.442 300.975C97.299 297.51 98.629 293.759 99.502 285.565C99.751 283.229 99.118 280.021 98.55 278.055Z" fill="#FAB17E" />
      <path d="M81.6385 299.961C82.0526 301.89 82.0027 303.316 81.2826 304.031C80.5625 304.745 77.8422 310.056 77.8422 310.056L76.9951 309.907L78.9571 305.048L81.6385 299.961Z" fill="#2C3282" />
      <path d="M76.1788 310.176C75.2753 310.455 72.6334 309.118 70.9968 307.547C69.3609 305.976 70.3286 305.208 71.8323 305.472C71.9172 305.487 72.0008 305.48 72.0844 305.458C72.8356 307.395 75.3051 308.849 76.1023 306.802C76.8917 304.773 80.2764 300.736 81.6394 299.871C81.6362 299.903 81.6349 299.933 81.6381 299.961C81.793 301.256 82.5021 302.459 80.1429 303.923C77.7829 305.388 77.0823 309.897 76.1788 310.176Z" fill="#2C3282" />
      <path d="M88.7 321.585C89.356 321.816 90.166 322.071 90.87 322.098C92.299 322.153 92.728 320.338 92.823 317.872C92.906 315.718 94.26 312.327 95.648 310.952C95.674 310.991 95.7 311.03 95.728 311.065C97.013 312.739 96.974 314.95 94.938 316.311C92.565 317.898 95.167 323.833 93.452 324.084C91.529 324.367 88.397 324.867 87.3449 323.337C86.3506 321.89 87.5847 321.775 88.7 321.585Z" fill="#2C3282" />
      <path d="M95.4061 310.452C95.4061 310.452 97.4891 312.966 97.2991 314.011C97.1091 315.056 96.4661 317.697 96.3591 319.733C96.2511 321.768 96.1561 324.105 96.1561 324.105C96.1561 324.105 95.4061 324.105 95.3471 323.859C95.2871 323.613 94.8701 315.585 94.8701 315.585L95.4061 310.452Z" fill="#2C3282" />
      <path d="M126.45 270.185C126.45 270.185 129.14 283.371 125.742 287.026C122.343 290.681 108.231 287.394 104.908 287.174C102.658 287.026 100.479 290.199 100.479 290.199C100.479 290.199 102.051 282.842 100.979 276.9C99.908 270.958 98.179 270.559 98.179 270.559L100.479 270.185H126.45Z" fill="#2C3282" />
      <path d="M127.06 266.737C125.909 269.556 128.298 274.425 127.461 275.828C126.624 277.23 121.832 276.024 118.692 273.104C115.552 270.184 109.608 269.543 109.608 269.543L127.06 266.737Z" fill="#83C8DA" />
      <path d="M119.202 235.583C119.493 235.233 119.96 234.424 120.015 232.798C120.06 231.465 119.641 230.007 118.836 228.694C117.82 227.036 116.237 225.629 114.135 224.509C114.037 224.457 113.921 224.507 113.876 224.619C113.831 224.733 113.874 224.867 113.972 224.919C116.011 226.005 117.541 227.363 118.517 228.955C119.273 230.187 119.666 231.546 119.624 232.78C119.555 234.842 118.779 235.416 118.771 235.421C118.68 235.486 118.65 235.624 118.705 235.731C118.759 235.836 118.877 235.872 118.97 235.81C118.982 235.802 119.075 235.736 119.202 235.583Z" fill="#303D60" />
      <path d="M118.926 218.139C118.926 218.139 116.321 212.017 122.601 210.525C128.879 209.033 138.758 219.908 132.671 229.11C126.584 238.312 127.625 238.477 129.88 242.075C131.48 244.628 126.547 244.913 123.544 244.863C123.077 244.856 122.934 244.15 123.341 243.884C124.224 243.307 124.911 242.468 124.101 241.424C122.493 239.349 119.381 238.773 122.604 232.61C125.018 227.993 121.646 223.442 118.926 218.139Z" fill="#2C3282" />
      <path d="M118.288 216.004C118.288 216.004 122.601 218.254 122.601 220.02C122.601 220.02 122.893 216.004 118.288 216.004Z" fill="#406CAC" />
      <path d="M88.6651 261.832C88.9321 262.518 89.6191 262.829 90.1991 262.527C90.7801 262.224 91.0341 261.424 90.7661 260.738C90.4991 260.053 89.8111 259.742 89.2311 260.044C88.6511 260.346 88.3971 261.147 88.6651 261.832Z" fill="white" />
      <path d="M277.437 370.55C277.437 370.55 277.543 370.655 276.364 370.788C275.266 370.906 271.61 370.803 271.61 370.803C271.61 370.803 261.836 351.445 260.966 347.016C260.104 342.594 259.016 339.901 257.048 339.798C255.073 339.695 230.465 342.791 226.744 336.232C223.022 329.68 226.103 323.187 226.103 323.187L230.472 326.386C230.472 326.386 235.595 325.995 241.895 325.811C247.762 325.642 260.739 325.076 260.739 325.076C262.721 325.364 264.047 326.418 264.956 327.334C269.407 331.82 277.437 370.55 277.437 370.55Z" fill="#2C3282" />
      <path d="M261.852 335.708L256.959 329.024L240.983 326.249L242.418 325.09C248.285 324.92 252.235 326.382 256.958 327.031C258.599 327.181 259.598 328.109 259.966 329.714L261.852 335.708Z" fill="#12294B" />
      <path d="M256.958 329.02L261.852 335.711L265.633 349.643L266.175 359.639L256.958 329.02Z" fill="#12294B" />
      <path d="M226.011 323.746C226.011 323.746 251.203 324.938 256.407 328.513C261.611 332.087 268.094 372.041 268.094 372.041L266.91 372.123C265.809 372.199 262.396 370.845 262.396 370.845C262.396 370.845 254.044 353.898 253.351 349.443C252.656 344.989 250.783 340.589 248.814 340.406C246.846 340.224 222.14 342.36 218.677 335.664C215.213 328.968 226.011 323.746 226.011 323.746Z" fill="#2C3282" />
      <path d="M218.303 289.562C218.314 289.547 218.326 289.534 218.338 289.519C218.557 289.273 218.818 289.047 219.106 288.846L219.117 288.839H219.119C221.368 287.267 225.388 286.931 225.388 286.931V286.934L225.389 286.931C225.389 286.931 225.828 286.89 226.524 286.858C227.051 285.491 227.651 283.469 227.837 280.516L228.235 280.623L234.935 282.42C234.935 282.42 234.638 284.546 234.499 286.559C234.469 287 234.446 287.435 234.436 287.841C234.629 287.912 234.81 287.982 234.968 288.048C234.968 288.048 238.799 288.5 239.705 289.474C240.612 290.45 242.424 296.938 242.881 298.088L217.085 298.51C217.085 298.51 216.438 291.769 218.303 289.562Z" fill="#FAB17E" />
      <path d="M249.923 315.871C250.316 316.302 250.245 316.985 249.765 317.316C249.267 317.658 248.7 318.106 248.421 318.529C248.254 318.783 248.847 317.946 248.652 318.216C247.834 319.351 246.798 320.531 245.726 320.947C245.325 321.106 244.92 321.153 244.515 321.058C243.912 320.912 242.947 320.229 241.974 319.308C241.184 318.557 240.39 317.648 239.786 316.747C239.548 316.39 239.342 316.032 239.175 315.687C239.139 315.96 239.108 316.222 239.08 316.473V316.477C238.936 317.827 238.917 318.879 239.135 319.363C239.417 319.974 239.029 321.417 240.057 322.021C242.102 323.212 245.948 323.528 245.083 324.564C244.352 325.434 242.081 325.7 239.647 326.101C237.737 326.414 235.729 326.811 234.3 327.653C234.244 327.685 234.188 327.717 234.128 327.752C230.698 329.773 220.403 335.991 217.35 335.701C216.147 335.586 216.37 333.287 217.1 330.234C218.248 325.418 220.653 318.728 220.653 315.822C220.653 314.234 217.088 298.507 217.088 298.507C217.088 298.507 216.437 291.77 218.303 289.562C218.303 289.562 220.237 287.255 223.902 287.137C224.021 287.204 227.267 288.519 231.817 288.764C236.402 289.01 237.035 288.404 237.035 288.404C243.296 289.174 240.829 292.104 242.883 298.087C242.883 298.087 246.584 312.689 247.524 313.444C248.108 313.911 249.187 315.063 249.923 315.871Z" fill="#FF6D2E" />
      <path d="M234.935 282.42C234.935 282.42 234.638 284.546 234.499 286.559C230.707 286.198 228.93 282.599 228.235 280.622L234.935 282.42Z" fill="#F4A26A" />
      <path d="M236.7 283.092C236.7 283.092 239.721 290.091 235.391 295.226L234.436 287.841L234.71 284.257C234.71 284.257 235.906 283.312 236.7 283.092Z" fill="#2C3282" />
      <path d="M238.354 281.754C237.439 283.698 235.251 284.724 233.166 284.207C231.145 283.706 228.614 282.273 227.445 278.359C225.837 272.982 226.897 268.93 232.659 268.981C238.42 269.033 239.395 271.243 239.727 273.141C239.965 274.501 239.756 278.782 238.354 281.754Z" fill="#FAB17E" />
      <path d="M249.448 317.543C249.281 317.797 248.846 317.946 248.652 318.216C247.834 319.351 246.798 320.53 245.726 320.947C245.325 321.106 244.92 321.154 244.515 321.059C243.911 320.911 242.947 320.229 241.974 319.307C241.184 318.557 240.39 317.648 239.787 316.747C239.548 316.389 239.342 316.032 239.175 315.687C239.139 315.961 239.107 316.223 239.079 316.473L238.395 314.476C238.395 314.476 240.134 307.041 240.354 302.7C240.577 298.315 239.967 297.77 240.354 302.7C240.918 309.882 246.59 315.248 249.448 317.543Z" fill="#EC5927" />
      <path d="M223.972 296.834C223.972 296.834 210.882 321.108 234.128 327.753C234.189 327.719 234.245 327.684 234.3 327.651C235.729 326.813 237.738 326.416 239.648 326.099C242.082 325.7 244.354 325.433 245.081 324.563C245.947 323.527 242.978 323.212 240.932 322.021C239.902 321.419 237.467 320.362 236.807 320.226C225.951 317.995 222.751 298.786 223.972 296.834Z" fill="#EC5927" />
      <path d="M234.2 270.169C234.2 270.169 234.317 276.704 239.075 277.834C239.075 277.834 241.047 277.017 239.402 274.868C237.757 272.72 234.2 270.169 234.2 270.169Z" fill="#2C3282" />
      <path d="M233.432 268.088C233.432 268.088 226.178 265.751 223.509 274.18C220.841 282.609 223.926 282.8 222.099 286.264C218.877 292.373 228.443 295.226 228.443 295.226L228.773 292.98C228.924 291.945 228.867 290.887 228.594 289.877C227.979 287.592 227.322 285.256 228.157 283.106C228.861 281.295 229.425 279.433 228.946 279.064C228.09 278.405 227.285 276.144 228.644 276.244C230.004 276.346 229.652 277.554 229.652 277.554C229.652 277.554 231.048 276.916 231.585 275.406C231.925 274.448 233.982 272.166 234.183 271.16C234.384 270.152 236.189 272.604 237.405 274.029C239.08 275.993 239.253 279.099 239.253 279.099C239.253 279.099 241.886 275.922 241.03 273.102C240.174 270.283 238.06 266.477 233.432 268.088Z" fill="#2C3282" />
      <path d="M232.682 317.319C232.682 317.319 236.452 316.459 237.644 316.823C238.836 317.187 241.474 319.404 240.833 319.408C240.193 319.413 237.645 318.212 237.248 318.444C236.851 318.676 235.065 319.603 233.906 319.139C232.748 318.676 232.682 317.319 232.682 317.319Z" fill="#FAB17E" />
      <path d="M217.538 290.912C217.538 290.912 215.194 300.576 214.748 305.95C214.426 309.841 213.971 313.08 213.575 315.436C213.193 317.705 214.938 319.768 217.239 319.759C218.333 319.754 219.648 319.742 221.204 319.715C227.288 319.614 234.422 319.715 234.422 319.715L233.757 316.583C231.262 315.224 220.766 312.738 221.028 311.689C221.289 310.639 224.909 296.048 224.909 296.048L217.538 290.912Z" fill="#FF6D2E" />
      <path d="M266.917 305.02L246.772 307.625L240.122 328.336L262.312 325.466L268.331 306.719C268.625 305.805 267.868 304.897 266.917 305.02Z" fill="#333332" />
      <path d="M241.358 328.458L225.962 324.133C225.21 324.23 224.521 323.699 224.424 322.947C224.327 322.195 224.858 321.506 225.61 321.409L240.136 325.192L245.628 308.488C245.856 307.766 246.628 307.365 247.351 307.594C248.074 307.822 248.474 308.594 248.245 309.317L242.491 327.51C242.329 328.02 241.887 328.389 241.358 328.458Z" fill="#333332" />
      <path d="M258.17 317.428C257.743 318.377 256.645 318.806 255.718 318.389C254.791 317.971 254.386 316.864 254.814 315.916C255.241 314.968 256.338 314.538 257.265 314.956C258.192 315.373 258.597 316.48 258.17 317.428Z" fill="white" />
      <path d="M225.61 321.409L241.718 320.761L240.137 325.192L225.61 321.409Z" fill="#333332" />
      <path d="M401.071 267.058L401.907 265.403L406.894 265.584L407.006 267.058L404.663 271.122L400.446 267.87L401.071 267.058Z" fill="#FAB17E" />
      <path d="M404.113 265.569L404.322 269.41C404.322 269.41 405.618 268.675 407.131 267.317L406.924 265.143L404.113 265.569Z" fill="#F9A66D" />
      <path d="M424.395 267.058L425.233 265.403L429.809 264.717L430.33 267.058L427.988 271.122L423.771 267.87L424.395 267.058Z" fill="#FAB17E" />
      <path d="M427.935 265.463L427.52 269.09C427.52 269.09 428.815 268.355 430.329 266.998L429.913 265.143L427.935 265.463Z" fill="#F9A66D" />
      <path d="M424.095 267.001C424.095 267.001 425.559 266.972 427.263 268.265C428.278 269.035 429.811 267.447 430.28 267.037C430.376 266.954 430.506 267.029 430.522 267.177L431.112 272.545H416.761C416.452 272.545 416.159 272.408 415.961 272.172C415.518 271.644 415.7 270.839 416.326 270.553L424.095 267.001Z" fill="#2C3282" />
      <path d="M400.757 267.001C400.757 267.001 402.222 266.972 403.926 268.265C404.941 269.035 406.474 267.447 406.943 267.037C407.039 266.954 407.169 267.029 407.185 267.177L407.775 272.545H393.423C393.115 272.545 392.822 272.408 392.624 272.172C392.181 271.644 392.362 270.839 392.989 270.553L400.757 267.001Z" fill="#2C3282" />
      <path d="M374.892 199.244L376.184 201.734L377.568 200.979L394.549 191.74L404.299 179.666L404.749 179.11L400.047 170.957L389.019 187.157L374.892 199.244Z" fill="#FAB17E" />
      <path d="M377.131 201.012L377.568 200.979L394.55 191.74L404.299 179.666L401.133 179.448L392.927 190.389L377.131 201.012Z" fill="#ED975E" />
      <path d="M415.288 154.204L415.627 154.021L415.972 153.784C415.789 153.838 415.525 153.96 415.288 154.204Z" fill="#2D4873" />
      <path d="M419.102 144.853C419.082 145.11 419.055 145.381 419.008 145.673C418.859 146.757 418.553 148.071 418.059 149.691L418.045 149.739L418.018 149.752L415.925 150.884L415.856 150.768L415.796 150.64L415.965 150.552L414.657 146.323L414.427 145.585L414.101 144.541C413.912 143.938 413.485 143.437 412.929 143.172C412.272 142.867 411.432 142.637 410.883 143.064C409.947 143.782 408.87 144.487 408.03 144.148C407.657 144.006 407.325 143.633 407.081 143.294C406.898 143.186 406.736 143.05 406.587 142.895C406.315 142.603 406.105 142.237 405.956 141.844C405.773 141.566 405.611 141.261 405.475 140.943C405.624 140.299 405.828 139.669 406.099 139.208C406.099 139.208 406.587 138.334 407.081 138.117C408.105 137.663 409.026 137.033 410.035 136.653C410.361 136.525 410.706 136.423 411.065 136.369H411.073C411.526 136.484 412.001 136.47 412.469 136.335C412.671 136.267 412.895 136.24 413.132 136.24C413.566 136.254 414.048 136.464 414.474 136.796C414.935 137.155 415.504 137.351 416.094 137.311C416.216 137.304 416.331 137.297 416.446 137.311C416.636 137.426 416.819 137.555 416.995 137.704V137.71C417.043 137.751 417.693 138.341 418.214 138.767C418.222 138.767 418.228 138.774 418.235 138.781C418.275 138.822 418.459 139.039 418.696 139.412C418.743 140.631 418.872 141.838 419.062 143.043C419.143 143.558 419.157 144.155 419.102 144.853Z" fill="#2C3282" />
      <path d="M400.1 264.647C400.126 265.21 400.583 265.647 401.147 265.66L407.121 265.767C407.67 265.773 408.134 265.376 408.2 264.833C409.028 258.091 414.274 216.636 421.34 202.701L414.307 202.489L401.147 202.085C401.147 202.085 400.756 206.755 400.312 212.451C399.775 219.352 399.159 227.763 399.06 231.22C398.901 236.817 399.881 259.594 400.1 264.647Z" fill="#2C3282" />
      <path d="M400.312 212.451L411.685 240.791L414.306 202.489L401.146 202.086C401.146 202.086 400.756 206.755 400.312 212.451Z" fill="#12294B" />
      <path d="M406.388 202.087C406.388 202.087 405.543 221.114 410.024 234.576C413.251 244.27 419.973 261.869 421.398 265.585C421.559 266.006 421.968 266.278 422.418 266.267L429.242 266.097C429.923 266.08 430.413 265.437 430.249 264.776L422.838 234.899C422.426 233.276 422.167 231.616 422.061 229.942C421.664 223.62 422.963 210.847 423.506 202.662L406.388 202.087Z" fill="#2C3282" />
      <path d="M412.491 164.082C415.732 168.79 406.603 180.425 402.938 181.998L396.159 173.89C397.925 171.647 400.023 168.755 403.377 165.244C403.377 165.244 409.249 159.375 412.491 164.082Z" fill="#07A6AA" />
      <path d="M418.38 162.411C418.38 162.411 430.71 165.379 428.313 171.683C423.346 184.756 424.448 202.799 424.448 202.799L399.48 202.004C402.455 192.858 404.18 185.865 402.561 176.385L402.782 174.534C402.883 172.429 403.45 170.27 404.299 168.356C405.155 166.425 407.327 162.509 408.02 162.422L416.856 161.298L418.38 162.411Z" fill="#FFEF92" />
      <path d="M399.481 202.004L424.448 202.799C424.448 202.799 423.015 191.366 428.314 171.683C429.274 168.114 426.529 163.894 421.339 166.462C424.204 166.718 429.57 167.558 425.358 179.162C420.517 192.496 414.082 201.131 399.481 202.004Z" fill="#FEE255" />
      <path d="M407.245 191.178C407.189 191.613 407.258 191.981 407.399 192.001C407.541 192.02 407.702 191.682 407.758 191.248C407.814 190.813 407.746 190.445 407.604 190.426C407.462 190.406 407.302 190.743 407.245 191.178Z" fill="white" />
      <path d="M416.063 152.956L416.003 160.365L410.424 165.378L409.391 162.343L409.935 156.722L415.586 151.606C415.586 151.606 416.455 152.224 416.564 152.449C416.673 152.674 416.063 152.956 416.063 152.956Z" fill="#FAB17E" />
      <path d="M415.586 151.606L409.935 156.722L409.536 161.236C409.536 161.236 414.666 158.653 414.844 154.413L415.586 151.606Z" fill="#ED975E" />
      <path d="M416.005 160.138L417.289 160.737C418.129 161.129 418.281 162.258 417.574 162.858L411.387 168.114L410.043 165.378L416.005 160.138Z" fill="#7DCFD9" />
      <path d="M409.536 161.236C409.401 161.283 408.021 162.422 408.021 162.422V166.949L410.262 165.047L409.536 161.236Z" fill="#7DCFD9" />
      <path d="M416.135 149.71C416.203 149.89 416.425 149.943 416.56 149.81C417.02 149.358 417.936 148.739 418.265 150.537C418.711 152.98 416.162 152.56 415.959 152.889C415.547 153.556 414.226 155.796 412.257 156.666C411.057 157.196 406.665 157.194 406.665 157.194C406.665 157.194 406.071 155.624 406.621 142.168C406.621 142.168 407.221 143.327 408.084 143.626C408.948 143.924 410.332 142.727 411.315 142.452C412.114 142.229 413.662 141.643 414.608 144.422C415.043 145.698 415.734 148.652 416.135 149.71Z" fill="#FAB17E" />
      <path d="M416.546 176.097L416.547 174.533C416.547 174.533 411.825 181.495 410.308 186.956C409.956 188.222 408.803 187.63 407.501 187.072C406.199 186.514 404.749 185.989 404.749 185.989C404.749 185.989 409.332 189.301 410.043 189.719C413.277 191.621 418.08 190.16 416.546 176.097Z" fill="#FEE255" />
      <path d="M408.748 194.262L403.192 176.826C402.884 175.86 402.186 175.08 401.278 174.688L389.901 169.773C389.564 169.628 389.218 169.962 389.336 170.32L394.95 187.401C395.252 188.321 395.909 189.069 396.765 189.469L408.171 194.799C408.508 194.956 408.864 194.625 408.748 194.262Z" fill="#333332" />
      <path d="M392.953 180.512C392.967 180.708 394.038 181.912 394.388 182.234C394.667 182.486 397.117 184.977 400.203 188.099C403.885 191.822 408.461 196.441 411.338 199.212C412.766 200.591 415.054 200.248 416.061 198.519L422.976 186.93L425.355 182.934L418.475 176.384C418.412 176.483 413.454 184.24 412.397 188.166C412.047 189.461 409.868 189.141 408.818 188.498L400.777 183.542C400.777 183.542 400.791 182.136 400.609 181.604C400.273 180.597 398.664 179.239 398.664 179.239L399.042 180.406C399.167 180.77 399.895 182.003 399.245 182.08L394.143 178.294C394.143 178.294 392.715 177.832 392.953 180.512Z" fill="#FBB88A" />
      <path d="M418.689 169.907C418.689 169.907 420.528 164.414 425.754 165.986C431.37 167.675 426.669 185.645 424.463 188.08L414.033 180.019L418.689 169.907Z" fill="#13B4C0" />
      <path d="M399.481 187.368L400.482 188.305C403.857 191.993 408.74 196.647 411.616 199.418C413.044 200.797 415.333 200.454 416.341 198.725L423.255 187.136L420.624 185.099C420.624 185.099 414.563 197.087 413.282 197.172C412.023 197.249 399.845 187.655 399.481 187.368Z" fill="#ED975E" />
      <path d="M423.641 165.702C423.641 165.702 429.343 170.576 420.341 184.893L424.813 188.224C424.771 188.306 434.021 165.343 423.641 165.702Z" fill="#07A6AA" />
      <path d="M375.338 198.855L368.342 202.087L366.912 204.108C366.72 204.308 366.878 204.636 367.153 204.611C368.268 204.508 370.373 204.188 372.014 203.2C374.355 201.79 375.391 201.339 374.652 202.626C373.912 203.913 374.361 205.318 374.361 205.318C374.361 205.318 376.341 204.081 377.128 201.016L375.338 198.855Z" fill="#FAB17E" />
      <path d="M419.204 145.611C419.184 145.659 419.15 145.692 419.103 145.692C419.075 145.699 419.042 145.692 419.008 145.672C419.001 145.666 419.001 145.666 418.994 145.659H418.987C418.493 145.157 417.564 145.178 416.947 144.812C416.894 144.778 416.833 144.791 416.785 144.832C416.602 145.035 416.053 145.584 415.105 146.092C415.037 146.133 414.969 146.167 414.901 146.201C414.82 146.241 414.739 146.282 414.658 146.323C414.583 146.357 414.508 146.39 414.427 146.425C413.363 146.892 411.94 147.251 410.144 147.184H410.131C410.016 147.17 408.003 146.912 406.492 146.553C406.485 146.553 406.479 146.553 406.471 146.547C406.011 146.438 405.604 146.323 405.306 146.201C405.306 146.201 405.224 146.174 405.089 146.14C404.316 145.937 403.496 146.004 402.765 146.309C402.304 146.499 401.85 146.682 401.566 146.79C401.558 146.797 401.552 146.797 401.545 146.804L401.288 146.967C401.288 146.967 401.138 147.075 401.03 146.987C400.996 146.96 400.983 146.919 400.983 146.886C400.989 146.804 401.023 146.648 401.227 146.479C401.233 146.479 401.24 146.472 401.24 146.472L404.527 144.473C404.689 144.378 404.832 144.25 404.947 144.1C405.001 144.026 405.049 143.951 405.055 143.89C405.055 143.883 405.055 143.877 405.062 143.87C405.069 143.762 405.13 142.671 405.353 141.498C405.387 141.315 405.428 141.125 405.475 140.943C405.624 140.298 405.828 139.668 406.099 139.208C406.099 139.208 406.587 138.333 407.081 138.117C408.105 137.662 409.026 137.032 410.036 136.653C410.361 136.524 410.706 136.423 411.066 136.368H411.073C411.344 136.321 411.628 136.301 411.92 136.307C411.981 136.314 412.028 136.273 412.049 136.226C412.103 136.07 412.285 135.779 412.869 135.82C412.869 135.82 413.336 135.793 413.451 136.138C413.471 136.179 413.505 136.213 413.553 136.219C413.885 136.281 415.254 136.552 416.446 137.31C416.636 137.425 416.819 137.554 416.995 137.703V137.71C417.043 137.751 417.693 138.34 418.215 138.767C418.222 138.767 418.228 138.774 418.235 138.78C418.276 138.821 418.459 139.038 418.696 139.411C419.34 140.455 420.322 142.691 419.204 145.611Z" fill="#FF6D2E" />
      <path d="M198.545 303.037C201.14 308.226 198.992 314.202 193.888 316.313C188.75 318.439 183.133 317.231 180.538 312.042C177.943 306.852 179.87 300.63 184.843 298.143C189.815 295.656 195.95 297.847 198.545 303.037Z" fill="#2C3282" />
      <path d="M204.876 349.949L204.603 353.034L204.39 355.506L204.247 357.105C204.247 357.105 203.663 356.818 202.761 356.324C200.206 354.907 195.096 351.776 193.504 348.531L192.791 329.419L191.442 327.766L188.128 323.694L188.288 321.147L195.452 326.977C195.452 326.977 201.843 347.803 204.876 349.949Z" fill="white" />
      <path d="M206.127 354.626L204.391 355.506L202.761 356.324C200.206 354.907 195.096 351.776 193.504 348.531L192.791 329.419L191.442 327.766L191.487 326.977L195.84 332.086L197.497 344.614C197.597 345.371 197.936 346.076 198.463 346.627L204.603 353.034L206.127 354.626Z" fill="#ECF3FB" />
      <path d="M182.062 320.45C182.062 320.45 173.332 325.329 171.296 326.366C169.261 327.403 176.998 357.855 178.719 359.159C180.439 360.465 195.588 359.384 197.313 357.74C199.038 356.096 192.118 350.836 194.896 341.101C198.055 330.032 193.879 328.059 191.232 325.647C190.658 325.123 186.308 320.45 186.308 320.45H182.062Z" fill="white" />
      <path d="M178.719 359.16C180.44 360.464 191.28 360.494 195.894 359.058C196.415 358.896 198.779 357.954 198.835 357.068C198.278 356.964 196.067 357.229 195.17 357.023C192.049 356.306 190.33 352.44 190.33 352.44C190.33 352.44 188.612 351.822 184.767 350.194C180.923 348.565 182.506 343.635 182.415 341.464C182.325 339.294 178.616 332.193 171.651 326.81L171.012 327.097C170.515 332.046 177.127 357.952 178.719 359.16Z" fill="#ECF3FB" />
      <path d="M170.611 326.937C167.728 336.153 165.01 347.043 163.585 352.984C163.052 355.207 164.788 357.321 167.073 357.232C174.061 356.962 186.755 356.395 187.442 355.807C188.392 354.994 188.12 351.873 187.985 351.466C187.849 351.059 174.255 348.647 174.255 348.647C174.255 348.647 176.045 345.158 176.723 338.34C177.402 331.522 171.408 324.387 170.611 326.937Z" fill="white" />
      <path d="M185.26 308.765L181.872 321.145C181.872 321.145 185.868 326.358 187.442 325.564C189.016 324.77 188.291 322.024 188.291 321.145C188.291 320.266 190.745 311.196 190.745 311.196L185.26 308.765Z" fill="#FAB17E" />
      <path d="M188.409 321.777C188.335 321.484 188.291 321.264 188.291 321.145C188.291 320.266 190.745 311.196 190.745 311.196L185.26 308.765L184.139 312.862C185.118 317.094 186.885 319.913 188.409 321.777Z" fill="#ED975E" />
      <path d="M198.279 309.901C198.102 313.544 196.616 318.095 193.237 318.56C189.859 319.025 186.637 315.902 186.044 311.585C185.449 307.268 187.707 303.391 191.086 302.926C194.464 302.461 198.492 305.548 198.279 309.901Z" fill="#FAB17E" />
      <path d="M187.148 310.58C187.594 311.835 187.207 313.12 186.28 313.45C185.355 313.779 184.243 313.029 183.796 311.774C183.349 310.519 183.737 309.234 184.663 308.905C185.588 308.575 186.701 309.326 187.148 310.58Z" fill="#F0995A" />
      <path d="M186.643 311.669C186.597 311.662 186.571 311.662 186.571 311.662C186.591 311.616 186.604 311.57 186.624 311.519C186.63 311.57 186.637 311.616 186.643 311.669Z" fill="#2C3282" />
      <path d="M192.114 311.145C192.088 311.151 192.061 311.158 192.035 311.164C192.068 311.04 192.074 310.968 192.074 310.968C192.088 311.027 192.101 311.086 192.114 311.145Z" fill="#2C3282" />
      <path d="M225.38 336.469L204.531 339.165L197.648 360.6L220.614 357.631L226.844 338.228C227.148 337.282 226.365 336.342 225.38 336.469Z" fill="#333332" />
      <path d="M198.928 360.726L186.382 362.348C185.604 362.449 184.892 361.9 184.791 361.122C184.69 360.343 185.24 359.631 186.018 359.53L197.665 358.024L203.348 340.059C203.584 339.311 204.383 338.897 205.131 339.133C205.879 339.37 206.294 340.168 206.057 340.916L200.101 359.746C199.934 360.272 199.476 360.656 198.928 360.726Z" fill="#333332" />
      <path d="M174.386 312.435C174.386 312.435 174.517 312.442 174.733 312.442C174.622 312.461 174.504 312.455 174.386 312.435Z" fill="#2C3282" />
      <path d="M200.545 305.57C200.545 305.57 199.687 304.128 198.528 303.63C198.672 303.716 198.757 303.761 198.757 303.761C198.351 306.887 196.778 308.799 194.892 309.959C194.007 311.453 192.946 312.815 191.734 313.516C191.793 313.431 192.389 312.566 192.114 311.145C192.101 311.086 192.088 311.027 192.075 310.968C192.075 310.968 192.068 311.04 192.035 311.164C191.891 311.767 191.289 313.588 189.133 313.955C189.264 313.837 190.515 312.717 189.932 311.577C189.932 311.577 187.24 312.776 188.91 315.829C188.785 315.724 187.037 314.204 186.643 311.669C186.637 311.617 186.63 311.571 186.624 311.518C186.604 311.571 186.591 311.617 186.571 311.662C185.182 315.305 188.163 317.919 188.163 317.919C185.3 318.961 184.016 316.851 184.016 316.851C183.066 318.555 186.204 320.323 186.204 320.323C180.157 320.526 179.876 314.539 179.876 314.539C178.788 315.966 179.385 317.919 179.385 317.919C175.696 315.993 178.041 311.708 178.041 311.708C177.347 312.422 175.506 312.462 174.733 312.442C176.974 312.252 177.563 306.52 177.563 306.52C175.617 307.181 176.03 309.69 176.063 309.906C173.219 306.205 177.294 304.41 177.294 304.41C174.025 304.967 174.903 300.401 174.903 300.401C174.903 300.401 174.91 305.295 179.057 300.401C183.204 295.506 188.157 297.118 188.157 297.118C188.157 297.118 189.598 294.281 192.455 295.71C195.193 297.079 197.014 295.88 197.165 295.782C197.152 295.86 196.818 297.138 195.101 297.57C195.101 297.57 198.03 300.335 201.017 299.45C201.017 299.45 199.668 301.56 197.394 300.787C198.265 301.141 201.397 302.608 200.545 305.57Z" fill="#2C3282" />
      <path d="M216.328 349.312C215.886 350.293 214.75 350.737 213.791 350.305C212.831 349.873 212.412 348.728 212.855 347.746C213.297 346.765 214.432 346.32 215.391 346.753C216.351 347.184 216.77 348.33 216.328 349.312Z" fill="white" />
      <path d="M326.272 154.501C331.961 149.087 341.653 152.529 341.448 160.774C341.243 169.019 344.433 167.709 347.808 170.995C354.964 177.962 345.854 181.218 338.642 183.045C335.295 183.893 323.206 177.934 322.661 166.102C322.299 158.248 324.608 156.085 326.272 154.501Z" fill="#2C3282" />
      <path d="M328.924 201.774C327.1 217.089 323.787 228.409 323.418 235.669C323.049 242.929 321.572 271.515 321.572 271.515C321.572 271.515 325.633 271.231 326.002 270.615C326.371 270 333.631 253.881 333.262 243.914C332.893 233.946 340.513 218.791 340.513 218.791L338.676 203.922L328.924 201.774Z" fill="#2C3282" />
      <path d="M330.675 208.441L327.823 209.635C327.048 214.491 326.188 218.857 325.433 222.729C329.971 225.663 332.316 235.439 333.32 241.415C333.832 234.728 336.987 226.647 338.945 222.179L330.675 208.441Z" fill="#12294B" />
      <path d="M343.845 200.23C343.845 200.23 349.991 208.07 349.798 216.966C349.505 230.505 348.779 234.944 350.062 248.569C350.591 254.18 348.383 272.253 348.383 272.253C348.383 272.253 345.633 272.469 344.157 271.734C344.28 270.401 342.38 248.72 338.679 238.754C336.888 233.928 334.37 220.411 333.016 212.659C331.663 204.906 331.416 203.307 331.909 203.307C332.401 203.307 343.845 200.23 343.845 200.23Z" fill="#2C3282" />
      <path d="M308.828 178.455L307.292 180.044C307.292 180.044 305.05 178.021 304.67 177.309C304.569 177.128 304.505 176.598 304.467 175.913L304.547 175.897C304.542 175.854 304.547 175.812 304.558 175.774C304.943 174.297 304.012 172.072 304.724 172.072C305.221 172.072 305.965 173.704 306.329 175.539L306.671 175.469L305.706 170.453C305.626 170.035 306.13 169.758 306.437 170.053C307.421 171.001 308.465 172.59 308.662 173.147C309.101 174.399 308.828 178.455 308.828 178.455Z" fill="#FAB17E" />
      <path d="M331.674 174.276C323.034 183.576 318.585 188.714 317.928 188.714C315.878 185.094 309.065 177.437 309.065 177.437L306.161 179.304C306.161 179.304 312.873 196.842 317.139 197.022C321.405 197.204 330.076 190.975 330.186 190.26C330.296 189.544 331.674 174.276 331.674 174.276Z" fill="#FED7B4" />
      <path d="M321.034 196.114C325.261 194.393 330.104 190.794 330.186 190.259C330.296 189.545 331.95 173.984 331.95 173.984C330.065 176.012 326.182 180.211 324.755 181.784C323.207 187.548 323.644 192.94 321.034 196.114Z" fill="#F8C498" />
      <path d="M338.824 169.378C338.824 169.378 347.093 173.522 348.897 180.859C350.702 188.195 345.362 197.259 344.706 202.096C344.049 206.933 328.955 207.784 328.955 202.606C328.955 197.643 326.392 187.334 326.605 184.65C327.106 178.353 335.093 170.411 335.093 170.411L338.824 169.378Z" fill="#FED7B4" />
      <path d="M336.422 159.873L339.972 170.819C339.972 170.819 339.338 171.787 336.741 174.773C335.359 176.362 332.769 175.006 333.296 172.968C333.611 171.746 333.869 170.994 333.869 170.994L331.184 160.658L336.422 159.873Z" fill="#F0995A" />
      <path d="M338.077 164.979L336.421 159.873L331.184 160.658L333.869 170.994C336.399 169.117 337.301 167.855 338.077 164.979Z" fill="#ED975E" />
      <path d="M334.466 162.344C333.509 165.827 332.506 167.361 329.801 167.745C327.231 168.109 323.968 163.205 324.926 159.722C325.883 156.238 328.795 154.002 331.429 154.726C334.064 155.45 335.423 158.861 334.466 162.344Z" fill="#FAB17E" />
      <path d="M328.431 197.206C329.581 204.49 326.606 214.612 326.606 214.612C326.606 214.612 328.331 215.931 335.961 215.193C343.591 214.455 346.345 212.052 347.493 211.84C348.642 211.627 349.798 217.774 349.798 216.965C349.798 214.428 350.451 210.285 348.97 206.435C346.345 199.61 346.859 196.715 347.84 192.58C349.585 185.227 328.431 197.206 328.431 197.206Z" fill="#FED7B4" />
      <path d="M321.757 267.93C322.444 270.722 321.088 272.936 319.272 274.55C317.795 275.863 313.256 276.421 313.474 277.077C313.693 277.733 319.053 277.941 320.858 277.668C322.663 277.394 323.155 276.519 325.402 276.52C326.874 276.521 327.148 275.323 326.491 273.843C325.835 272.363 325.605 271.545 326.198 270.217C326.792 268.89 321.757 267.93 321.757 267.93Z" fill="#2C3282" />
      <path d="M348.541 267.93C348.431 270.828 348.095 272.988 348.806 274.332C351.552 276.629 353.834 279.238 352.962 279.418C348.806 280.276 347.22 277.785 344.868 277.077C341.982 276.208 345.141 272.582 344.011 267.93C343.382 265.344 348.368 265.964 348.368 265.964L348.541 267.93Z" fill="#2C3282" />
      <path d="M349.59 208.812C349.424 207.903 349.219 207.084 348.97 206.436C346.345 199.611 346.859 196.715 347.84 192.58C347.917 192.254 347.948 191.968 347.939 191.717C348.16 190.98 348.367 190.232 348.548 189.481L347.657 181.437L341.233 173.808C336.418 180.863 339.667 189.641 338.945 194.481C338.223 199.321 330.155 205.493 330.155 205.493L330.417 207.211C330.777 209.566 332.961 211.203 335.322 210.875C338.647 210.413 343.009 209.486 344.95 207.685C346.828 205.942 348.491 207.291 349.59 208.812Z" fill="#F8C498" />
      <path d="M332.042 205.216C332.042 205.216 328.48 206.212 328.054 206.435C327.628 206.658 327.393 207.835 327.393 207.835C327.393 207.835 325.355 209.605 326.136 210.233C326.917 210.86 328.311 212.446 330.155 211.708C331.287 211.255 332.164 207.096 332.906 207.063C333.648 207.03 332.042 205.216 332.042 205.216Z" fill="#FAB17E" />
      <path d="M342.128 172.878C345.94 172.986 349.396 179.851 350.6 185.807C351.804 191.763 353.072 200.23 353.072 200.23C353.072 200.23 346.755 205.216 340.514 206.673C335.068 207.944 332.289 208.441 332.289 208.441L331.184 205.333L344.212 197.681C344.212 197.681 339.421 188.656 338.945 181.848C338.469 175.038 339.231 172.796 342.128 172.878Z" fill="#FED7B4" />
      <path d="M304.558 175.774C304.943 174.298 304.012 172.072 304.724 172.072C305.222 172.072 305.965 173.703 306.329 175.539L304.547 175.897C304.542 175.854 304.547 175.812 304.558 175.774Z" fill="#F4DC95" />
      <path d="M306.543 177.962C306.543 177.962 304.564 176.705 304.547 175.897C304.542 175.855 304.547 175.811 304.558 175.774C304.943 174.297 304.012 172.071 304.724 172.071C305.221 172.071 305.965 173.703 306.329 175.538C306.495 176.347 306.581 177.198 306.543 177.962Z" fill="#FAB17E" />
      <path d="M325.624 155.814C325.835 162.651 333.82 162.126 336.008 161.705C338.196 161.283 333.345 176.128 337.512 176.985C340.572 177.613 339.883 172.827 343.282 173.147C344.786 173.288 346.297 175.613 346.297 175.613C346.297 175.613 346.071 174.181 344.923 173.147C343.774 172.112 340.763 165.768 339.971 161.229C339.18 156.689 333.82 153.753 332.234 153.662C330.648 153.571 326.765 155.377 326.765 155.377L325.624 155.814Z" fill="#2C3282" />
      <path d="M337.441 178.532C337.333 178.532 337.223 178.52 337.112 178.497C335.778 178.213 335.131 176.811 335.077 174.085C335.029 171.749 335.416 168.751 335.825 165.576C335.99 164.293 336.16 162.967 336.301 161.683C336.313 161.574 336.411 161.494 336.522 161.506C336.632 161.518 336.711 161.617 336.699 161.727C336.558 163.014 336.387 164.342 336.221 165.627C335.43 171.769 334.683 177.571 337.195 178.106C337.273 178.122 337.351 178.131 337.429 178.131C338.872 178.131 340.171 175.318 340.929 172.578C340.958 172.472 341.068 172.41 341.174 172.439C341.281 172.469 341.344 172.578 341.314 172.685C340.814 174.493 339.469 178.531 337.441 178.532Z" fill="#2C3282" />
      <path d="M336.907 180.121C336.453 180.121 336.056 179.944 335.726 179.596C333.004 176.718 335.695 162.281 335.811 161.668C335.832 161.559 335.937 161.488 336.045 161.508C336.153 161.528 336.225 161.633 336.204 161.742C336.176 161.89 333.434 176.59 336.016 179.321C336.317 179.638 336.672 179.765 337.103 179.708C338.517 179.521 339.333 177.603 340.053 175.911C340.751 174.27 341.407 172.719 342.578 172.76C342.688 172.764 342.774 172.857 342.77 172.967C342.767 173.077 342.674 173.166 342.564 173.159C342.554 173.159 342.544 173.159 342.535 173.159C341.658 173.159 341.057 174.572 340.42 176.068C339.659 177.858 338.795 179.887 337.156 180.104C337.071 180.115 336.988 180.121 336.907 180.121Z" fill="#2C3282" />
      <path d="M336.304 163.018C335.742 163.743 334.86 164.001 334.335 163.594C333.81 163.186 333.84 162.268 334.403 161.543C334.966 160.817 335.847 160.56 336.372 160.967C336.897 161.374 336.867 162.293 336.304 163.018Z" fill="#FAB17E" />
    </g>
  </g>
  <defs>
    <filter id="filter0_d_527_5431" x="15.8105" y="1.70453" width="558.919" height="445.721" filterUnits="userSpaceOnUse" color-interpolation-filters="sRGB">
      <feFlood flood-opacity="0" result="BackgroundImageFix" />
      <feColorMatrix in="SourceAlpha" type="matrix" values="0 0 0 0 0 0 0 0 0 0 0 0 0 0 0 0 0 0 127 0" result="hardAlpha" />
      <feOffset dy="4" />
      <feGaussianBlur stdDeviation="2" />
      <feComposite in2="hardAlpha" operator="out" />
      <feColorMatrix type="matrix" values="0 0 0 0 0 0 0 0 0 0 0 0 0 0 0 0 0 0 0.25 0" />
      <feBlend mode="normal" in2="BackgroundImageFix" result="effect1_dropShadow_527_5431" />
      <feBlend mode="normal" in="SourceGraphic" in2="effect1_dropShadow_527_5431" result="shape" />
    </filter>
    <linearGradient id="paint0_linear_527_5431" x1="19.8108" y1="329.536" x2="570.729" y2="329.536" gradientUnits="userSpaceOnUse">
      <stop stop-color="#DBE2F3" />
      <stop offset="1" stop-color="#EAEFF8" />
    </linearGradient>
    <linearGradient id="paint1_linear_527_5431" x1="144.131" y1="157.804" x2="396.408" y2="157.804" gradientUnits="userSpaceOnUse">
      <stop stop-color="#6472B5" />
      <stop offset="0.00354599" stop-color="#6472B5" />
      <stop offset="1" stop-color="#5C6EB2" />
    </linearGradient>
    <linearGradient id="paint2_linear_527_5431" x1="nan" y1="nan" x2="nan" y2="nan" gradientUnits="userSpaceOnUse">
      <stop stop-color="#6472B5" />
      <stop offset="0.00354599" stop-color="#6472B5" />
      <stop offset="1" stop-color="#5C6EB2" />
    </linearGradient>
    <linearGradient id="paint3_linear_527_5431" x1="nan" y1="nan" x2="nan" y2="nan" gradientUnits="userSpaceOnUse">
      <stop stop-color="#6472B5" />
      <stop offset="0.00354599" stop-color="#6472B5" />
      <stop offset="1" stop-color="#5C6EB2" />
    </linearGradient>
    <linearGradient id="paint4_linear_527_5431" x1="nan" y1="nan" x2="nan" y2="nan" gradientUnits="userSpaceOnUse">
      <stop stop-color="#6472B5" />
      <stop offset="0.00354599" stop-color="#6472B5" />
      <stop offset="1" stop-color="#5C6EB2" />
    </linearGradient>
    <linearGradient id="paint5_linear_527_5431" x1="nan" y1="nan" x2="nan" y2="nan" gradientUnits="userSpaceOnUse">
      <stop stop-color="#6B7BBB" />
      <stop offset="0.00354577" stop-color="#6B7BBB" />
      <stop offset="1" stop-color="#5C6EB2" />
    </linearGradient>
    <linearGradient id="paint6_linear_527_5431" x1="nan" y1="nan" x2="nan" y2="nan" gradientUnits="userSpaceOnUse">
      <stop stop-color="#6B7BBB" />
      <stop offset="0.00354577" stop-color="#6B7BBB" />
      <stop offset="1" stop-color="#5C6EB2" />
    </linearGradient>
    <linearGradient id="paint7_linear_527_5431" x1="nan" y1="nan" x2="nan" y2="nan" gradientUnits="userSpaceOnUse">
      <stop stop-color="#6B7BBB" />
      <stop offset="0.00354577" stop-color="#6B7BBB" />
      <stop offset="1" stop-color="#5C6EB2" />
    </linearGradient>
    <linearGradient id="paint8_linear_527_5431" x1="nan" y1="nan" x2="nan" y2="nan" gradientUnits="userSpaceOnUse">
      <stop stop-color="#6B7BBB" />
      <stop offset="0.00354577" stop-color="#6B7BBB" />
      <stop offset="1" stop-color="#5C6EB2" />
    </linearGradient>
    <linearGradient id="paint9_linear_527_5431" x1="nan" y1="nan" x2="nan" y2="nan" gradientUnits="userSpaceOnUse">
      <stop stop-color="#6472B5" />
      <stop offset="0.00354599" stop-color="#6472B5" />
      <stop offset="1" stop-color="#5C6EB2" />
    </linearGradient>
    <linearGradient id="paint10_linear_527_5431" x1="nan" y1="nan" x2="nan" y2="nan" gradientUnits="userSpaceOnUse">
      <stop stop-color="#6B7BBB" />
      <stop offset="0.00354577" stop-color="#6B7BBB" />
      <stop offset="1" stop-color="#5C6EB2" />
    </linearGradient>
  </defs>
</svg>