<svg width="31" height="31" viewBox="0 0 31 31" fill="none" xmlns="http://www.w3.org/2000/svg">
    <path fill-rule="evenodd" clip-rule="evenodd"
        d="M0 15.5C0 6.94013 6.94013 0 15.5 0C24.0599 0 31 6.94013 31 15.5C31 24.0599 24.0599 31 15.5 31C6.94013 31 0 24.0599 0 15.5ZM21.5799 21.5799C22.0849 21.0748 22.0849 20.2585 21.5799 19.7535L17.3264 15.5L21.5799 11.2465C22.0849 10.7415 22.0849 9.92517 21.5799 9.42013C21.0748 8.91508 20.2585 8.91508 19.7535 9.42013L15.5 13.6736L11.2465 9.42013C10.7415 8.91508 9.92517 8.91508 9.42013 9.42013C8.91508 9.92517 8.91508 10.7415 9.42013 11.2465L13.6736 15.5L9.42013 19.7535C8.91508 20.2585 8.91508 21.0748 9.42013 21.5799C9.672 21.8318 10.0027 21.9583 10.3333 21.9583C10.664 21.9583 10.9947 21.8318 11.2465 21.5799L15.5 17.3264L19.7535 21.5799C20.0053 21.8318 20.336 21.9583 20.6667 21.9583C20.9973 21.9583 21.328 21.8318 21.5799 21.5799Z"
        fill="white" />
</svg>