<svg width="24" height="24" viewBox="0 0 24 24" fill="none" xmlns="http://www.w3.org/2000/svg">
  <path d="M4 6.5C4 5.67157 4.67157 5 5.5 5H18.5C19.3284 5 20 5.67157 20 6.5C20 7.32843 19.3284 8 18.5 8H5.5C4.67157 8 4 7.32843 4 6.5Z" fill="white" fill-opacity="0.6" />
  <path d="M4 11.5C4 10.6716 4.67157 10 5.5 10H18.5C19.3284 10 20 10.6716 20 11.5C20 12.3284 19.3284 13 18.5 13H5.5C4.67157 13 4 12.3284 4 11.5Z" fill="white" fill-opacity="0.6" />
  <path d="M4 16.5C4 15.6716 4.67157 15 5.5 15H18.5C19.3284 15 20 15.6716 20 16.5C20 17.3284 19.3284 18 18.5 18H5.5C4.67157 18 4 17.3284 4 16.5Z" fill="white" fill-opacity="0.6" />
</svg>